<?xml version="1.0" standalone="no"?>
<!DOCTYPE svg PUBLIC "-//W3C//DTD SVG 1.1//EN" "http://www.w3.org/Graphics/SVG/1.1/DTD/svg11.dtd" >
<svg>
<metadata>
Created by FontForge 20090914 at Fri Feb 24 12:58:28 2012
 By root
Copyright (c) 2011 by vernon adams. All rights reserved.
</metadata>
<defs>
<font id="Rokkitt" horiz-adv-x="0" >
  <font-face 
    font-family="Rokkitt"
    font-weight="400"
    font-stretch="normal"
    units-per-em="2048"
    panose-1="2 0 5 3 5 0 0 2 0 3"
    ascent="1638"
    descent="-410"
    x-height="805"
    cap-height="1153"
    bbox="-83 -595 1832 1552"
    underline-thickness="102"
    underline-position="-103"
    stemh="118"
    unicode-range="U+0001-U+2122"
  />
<missing-glyph horiz-adv-x="748" 
d="M612 0h-544v1365h544v-1365zM136 1297v-1229h408v1229h-408z" />
    <glyph glyph-name=".notdef" horiz-adv-x="748" 
d="M612 0h-544v1365h544v-1365zM136 1297v-1229h408v1229h-408z" />
    <glyph glyph-name="uni0001" 
 />
    <glyph glyph-name="uni0002" 
 />
    <glyph glyph-name="uni0003" 
 />
    <glyph glyph-name="uni0004" 
 />
    <glyph glyph-name="uni0005" 
 />
    <glyph glyph-name="uni0006" 
 />
    <glyph glyph-name="uni0007" 
 />
    <glyph glyph-name="uni0008" 
 />
    <glyph glyph-name="uni0009" unicode="&#x9;" 
 />
    <glyph glyph-name="uni0010" 
 />
    <glyph glyph-name="uni0011" 
 />
    <glyph glyph-name="uni0012" 
 />
    <glyph glyph-name="uni0013" 
 />
    <glyph glyph-name="uni0014" 
 />
    <glyph glyph-name="uni0015" 
 />
    <glyph glyph-name="uni0016" 
 />
    <glyph glyph-name="uni0017" 
 />
    <glyph glyph-name="uni0018" 
 />
    <glyph glyph-name="uni0019" 
 />
    <glyph glyph-name="space" unicode=" " horiz-adv-x="430" 
 />
    <glyph glyph-name="exclam" unicode="!" horiz-adv-x="466" 
d="M189 324l-42 497v350h172v-350l-42 -497h-88zM127 0v212h212v-212h-212z" />
    <glyph glyph-name="quotedbl" unicode="&#x22;" horiz-adv-x="665" 
d="M599 1171l-42 -415h-130l-45 415h217zM276 1171l-42 -415h-130l-45 415h217z" />
    <glyph glyph-name="numbersign" unicode="#" horiz-adv-x="1186" 
d="M357 0h-121l32 333h-178l12 109h182l33 291h-207l12 111h211l34 327h123l-34 -327h325l38 327h123l-37 -327h197l-12 -111h-201l-29 -291h222l-12 -109h-226l-35 -333h-121l31 333h-327zM439 733l-31 -291h327l30 291h-326z" />
    <glyph glyph-name="dollar" unicode="$" horiz-adv-x="940" 
d="M411 -143v139c-67 15 -127 46 -180 91v-87h-135v387h135v-116c52 -72 108 -115 180 -138v399c-177 40 -323 113 -323 327c0 192 139 297 323 310v136h131v-144c62 -15 119 -42 171 -82v74h135v-327h-135v82c-47 64 -99 104 -171 119v-365c189 -40 368 -132 368 -356
c0 -180 -148 -318 -368 -323v-126h-131zM745 304c0 113 -84 161 -203 195v-382c124 8 203 85 203 187zM244 867c0 -100 71 -143 167 -172v335c-112 -17 -167 -82 -167 -163z" />
    <glyph glyph-name="percent" unicode="%" horiz-adv-x="1579" 
d="M586 863c0 -219 -130 -306 -260 -306s-260 87 -260 306c0 218 130 307 260 307s260 -89 260 -307zM447 863c0 149 -61 202 -121 202s-121 -53 -121 -202c0 -148 61 -203 121 -203s121 55 121 203zM273 0l950 1196l61 -50l-943 -1196zM1519 287
c0 -219 -130 -306 -260 -306s-260 87 -260 306c0 218 130 307 260 307s260 -89 260 -307zM1380 287c0 149 -61 202 -121 202s-121 -53 -121 -202c0 -148 61 -203 121 -203s121 55 121 203z" />
    <glyph glyph-name="ampersand" unicode="&#x26;" horiz-adv-x="1201" 
d="M883 0l-86 115c-108 -92 -209 -134 -326 -134c-237 0 -415 149 -415 344c0 160 106 272 306 345c-73 93 -117 168 -117 251c0 139 128 249 288 249c157 0 280 -105 280 -240c0 -131 -68 -229 -247 -309l240 -289c51 69 86 150 107 251h230v-127h-129
c-35 -105 -72 -174 -128 -233l73 -98h184v-125h-260zM720 219l-282 354c-152 -53 -228 -133 -228 -238c0 -115 114 -218 277 -218c85 0 161 30 233 102zM494 720c125 65 185 124 185 212c0 72 -62 113 -146 113c-88 0 -148 -41 -148 -117c0 -56 37 -112 109 -208z" />
    <glyph glyph-name="quotesingle" unicode="'" horiz-adv-x="337" 
d="M284 1171l-42 -415h-130l-45 415h217z" />
    <glyph glyph-name="parenleft" unicode="(" horiz-adv-x="522" 
d="M34 517c0 344 199 547 442 648v-128c-152 -91 -281 -238 -281 -520s129 -430 281 -518v-131c-243 99 -442 308 -442 649z" />
    <glyph glyph-name="parenright" unicode=")" horiz-adv-x="522" 
d="M476 517c0 -341 -199 -550 -442 -649v131c152 88 281 236 281 518s-129 429 -281 520v128c243 -101 442 -304 442 -648z" />
    <glyph glyph-name="asterisk" unicode="*" horiz-adv-x="916" 
d="M379 483l-97 -132l-141 99l96 132l174 147l-228 14l-151 54l50 163l155 -51l200 -126l-58 230v158h169v-158l-60 -230l200 126l156 51l50 -163l-150 -54l-229 -14l173 -147l95 -132l-139 -99l-96 132l-85 215z" />
    <glyph glyph-name="plus" unicode="+" horiz-adv-x="1047" 
d="M585 602h405v-117h-405v-392h-124v392h-404v117h404v392h124v-392z" />
    <glyph glyph-name="comma" unicode="," horiz-adv-x="414" 
d="M86 0v211h227v-211c0 -153 -56 -237 -227 -237v87c90 18 121 53 121 150h-121z" />
    <glyph glyph-name="hyphen" unicode="-" horiz-adv-x="719" 
d="M101 340v144h517v-144h-517z" />
    <glyph glyph-name="period" unicode="." horiz-adv-x="414" 
d="M86 0v211h227v-211h-227z" />
    <glyph glyph-name="slash" unicode="/" horiz-adv-x="793" 
d="M563 1171h129l-434 -1189h-129z" />
    <glyph glyph-name="zero" unicode="0" horiz-adv-x="1004" 
d="M502 -19c-284 0 -415 239 -415 596c0 355 131 594 415 594s415 -239 415 -594c0 -357 -131 -596 -415 -596zM501 101c180 0 262 143 262 476c0 328 -81 474 -262 474c-197 0 -260 -182 -260 -474c0 -298 63 -476 260 -476z" />
    <glyph glyph-name="one" unicode="1" horiz-adv-x="584" 
d="M65 0v125h166v901h-174v127h323v-1028h154v-125h-469z" />
    <glyph glyph-name="two" unicode="2" horiz-adv-x="936" 
d="M700 136v242h127v-378h-761c-2 18 -3 35 -3 52c0 442 603 523 603 803c0 113 -68 180 -213 180c-159 0 -214 -86 -214 -291h-144c0 292 120 426 357 426c289 0 380 -172 380 -312c0 -351 -540 -433 -604 -722h472z" />
    <glyph glyph-name="three" unicode="3" horiz-adv-x="953" 
d="M51 346l147 4c13 -148 100 -233 245 -233c175 0 265 85 265 200c0 172 -159 215 -366 215v132h87c161 0 240 55 240 184c0 105 -76 187 -237 187c-133 0 -197 -81 -205 -198l-148 26c8 187 144 308 349 308c243 0 395 -112 395 -307c0 -113 -46 -219 -195 -262
c157 -29 241 -137 241 -277c0 -203 -160 -343 -436 -343c-221 0 -382 119 -382 364z" />
    <glyph glyph-name="four" unicode="4" horiz-adv-x="875" 
d="M319 0v125h164v190h-459v121l463 717h138v-717h190v-121h-190v-190h149v-125h-455zM483 436v511l-315 -511h315z" />
    <glyph glyph-name="five" unicode="5" horiz-adv-x="947" 
d="M92 329l143 1c25 -141 106 -222 235 -222c160 0 243 109 243 252c0 178 -103 265 -228 265c-84 0 -170 -36 -247 -113l-83 45v596h645v-237h-138v100h-379c-11 -125 -20 -240 -29 -365c57 80 140 113 244 113c229 0 375 -166 375 -403c0 -204 -123 -380 -403 -380
c-229 0 -362 132 -378 348z" />
    <glyph glyph-name="six" unicode="6" horiz-adv-x="947" 
d="M847 848h-137c-13 119 -103 197 -202 197c-169 0 -272 -145 -272 -406c68 56 175 84 288 84c207 0 343 -151 343 -351c0 -220 -136 -390 -369 -390c-272 0 -413 216 -413 589c0 364 135 600 412 600c208 0 345 -132 350 -323zM507 592c-71 0 -190 -27 -265 -83
c19 -258 90 -392 250 -392c152 0 230 107 230 245c0 134 -79 230 -215 230z" />
    <glyph glyph-name="seven" unicode="7" horiz-adv-x="819" 
d="M51 1153h758v-128c-248 -248 -359 -583 -359 -900h182v-125h-511v125h172c0 363 143 688 338 901h-443v-166h-137v293z" />
    <glyph glyph-name="eight" unicode="8" horiz-adv-x="1007" 
d="M499 -18c-253 0 -423 133 -423 333c0 136 72 244 227 284c-148 56 -194 151 -194 268c0 180 153 304 390 304s390 -124 390 -304c0 -118 -46 -212 -194 -268c153 -40 227 -148 227 -284c0 -200 -170 -333 -423 -333zM499 533c-171 0 -258 -79 -258 -212
c0 -120 106 -204 258 -204s258 84 258 204c0 133 -87 212 -258 212zM499 1040c-149 0 -236 -73 -236 -186c0 -112 99 -187 236 -195c135 8 236 83 236 195c0 113 -87 186 -236 186z" />
    <glyph glyph-name="nine" unicode="9" horiz-adv-x="949" 
d="M98 305h137c16 -119 110 -197 220 -197c155 0 254 137 254 426c-68 -68 -175 -104 -288 -104c-207 0 -343 151 -343 351c0 224 136 390 369 390c272 0 413 -209 413 -589c0 -364 -135 -600 -412 -600c-208 0 -345 132 -350 323zM438 571c71 0 191 38 265 123
c-21 223 -88 341 -250 341c-152 0 -230 -105 -230 -244c0 -128 79 -220 215 -220z" />
    <glyph glyph-name="colon" unicode=":" horiz-adv-x="414" 
d="M93 0v211h227v-211h-227zM93 609v211h227v-211h-227z" />
    <glyph glyph-name="semicolon" unicode=";" horiz-adv-x="414" 
d="M93 609v211h227v-211h-227zM100 0v211h227v-211c0 -153 -56 -237 -227 -237v87c90 18 121 53 121 150h-121z" />
    <glyph glyph-name="less" unicode="&#x3c;" horiz-adv-x="1109" 
d="M991 891l-779 -319l779 -320v-128l-936 394v107l936 394v-128z" />
    <glyph glyph-name="equal" unicode="=" horiz-adv-x="1152" 
d="M220 673h711v-118h-711v118zM220 299h711v-117h-711v117z" />
    <glyph glyph-name="greater" unicode="&#x3e;" horiz-adv-x="1108" 
d="M896 572l-779 319v128l936 -394v-107l-936 -394v128z" />
    <glyph glyph-name="question" unicode="?" horiz-adv-x="796" 
d="M404 323h-85c0 11 -1 20 -1 31c0 454 279 311 279 558c0 109 -88 182 -196 182c-133 0 -212 -80 -212 -229v-10c0 -3 0 -5 1 -6h-134c-1 8 -2 15 -2 23c0 249 177 343 345 343c189 0 339 -119 339 -303c0 -324 -313 -185 -334 -589zM452 197v-197h-172v197h172z" />
    <glyph glyph-name="at" unicode="@" horiz-adv-x="1418" 
d="M1133 81l69 -84c-116 -89 -258 -140 -447 -140c-480 0 -701 312 -701 632c0 337 245 682 691 682c416 0 590 -273 590 -538c0 -251 -155 -492 -407 -492c-52 0 -93 34 -102 122c-60 -88 -139 -122 -219 -122c-137 0 -270 114 -270 322c0 205 123 434 371 434
c83 0 149 -44 200 -131c3 8 6 23 22 113h136c-124 -576 -125 -580 -125 -584c0 -20 9 -37 29 -37c68 0 240 130 240 374c0 221 -165 427 -470 427c-320 0 -553 -239 -553 -572c0 -312 203 -520 568 -520c153 0 279 38 378 114zM866 600c0 112 -67 184 -171 184
c-144 0 -222 -174 -222 -323c0 -112 53 -211 165 -211c127 0 228 187 228 350z" />
    <glyph glyph-name="A" unicode="A" horiz-adv-x="1196" 
d="M318 1153h560v-118h-101l161 -484c50 -153 97 -303 133 -434h137v-117h-453v117h150l-85 307h-445l-84 -307h149v-117h-453v117h138c77 286 194 628 293 918h-100v118zM405 545h385c-27 87 -70 247 -155 490h-74c-85 -244 -131 -402 -156 -490z" />
    <glyph glyph-name="B" unicode="B" horiz-adv-x="1047" 
d="M66 117h148v918h-148v118h486c277 0 375 -143 375 -296c0 -123 -70 -210 -160 -250c123 -40 215 -142 215 -285c0 -138 -81 -322 -441 -322h-475v117zM374 532v-415h166c203 0 275 85 275 215c0 103 -65 200 -269 200h-172zM374 661h163c168 0 225 86 225 186
c0 120 -68 188 -249 188h-139v-374z" />
    <glyph glyph-name="C" unicode="C" horiz-adv-x="1249" 
d="M643 -19c-353 0 -574 242 -574 594c0 353 219 596 601 596c153 0 273 -61 357 -149v131h130v-349h-125c-77 156 -216 231 -384 231c-252 0 -402 -195 -402 -455c0 -257 115 -463 408 -463c169 0 333 65 399 261l135 -71c-109 -263 -345 -326 -545 -326z" />
    <glyph glyph-name="D" unicode="D" horiz-adv-x="1271" 
d="M59 0v117h159v918h-159v118h554c457 0 586 -296 586 -566c0 -354 -171 -587 -600 -587h-540zM380 1035v-918h245c288 0 409 208 409 464c0 252 -113 454 -425 454h-229z" />
    <glyph glyph-name="E" unicode="E" horiz-adv-x="1119" 
d="M60 0v117h156v918h-156v118h971v-321h-131v203h-525v-380h362v114h100v-359h-101v116h-359v-409h525v211h129v-328h-971z" />
    <glyph glyph-name="F" unicode="F" horiz-adv-x="1006" 
d="M687 528h-312v-411h156v-117h-469v117h152v918h-152v118h917v-321h-132v203h-473v-378h314v114h100v-359h-101v116z" />
    <glyph glyph-name="G" unicode="G" horiz-adv-x="1294" 
d="M653 1171c165 0 299 -61 387 -149v131h130v-349h-124c-80 157 -215 231 -384 231c-267 0 -417 -192 -417 -456s148 -462 432 -462c264 0 366 114 382 319h-227v127h407c-8 -420 -248 -581 -563 -581c-499 0 -609 370 -609 598c0 265 150 591 586 591z" />
    <glyph glyph-name="H" unicode="H" horiz-adv-x="1294" 
d="M72 0v117h139v918h-139v118h443v-118h-144v-368h551v368h-142v118h442v-118h-139v-918h139v-117h-442v117h143v421h-551v-421h143v-117h-443z" />
    <glyph glyph-name="I" unicode="I" horiz-adv-x="581" 
d="M75 0v117h134v918h-134v118h428v-118h-132v-918h132v-117h-428z" />
    <glyph glyph-name="J" unicode="J" horiz-adv-x="557" 
d="M-64 -194v133c31 -3 67 -4 120 -4c104 0 141 52 141 161v939h-155v118h471v-118h-153v-957c0 -224 -148 -288 -277 -288c-49 0 -107 7 -147 16z" />
    <glyph glyph-name="K" unicode="K" horiz-adv-x="1139" 
d="M655 0v117h128l-408 470v-470h139v-117h-450v117h150v918h-150v118h466v-118h-156v-417l421 417h-136v118h451v-118h-129l-421 -430l430 -488h131v-117h-466z" />
    <glyph glyph-name="L" unicode="L" horiz-adv-x="984" 
d="M59 0v117h158v918h-158v118h474v-118h-155v-918h410v335h145v-452h-874z" />
    <glyph glyph-name="M" unicode="M" horiz-adv-x="1577" 
d="M213 117v918h-148v118h385l168 -417l165 -419l338 836h390v-118h-147v-918h147v-117h-428v117h133v906l-415 -1023h-42l-412 1022v-905h133v-117h-415v117h148z" />
    <glyph glyph-name="N" unicode="N" horiz-adv-x="1322" 
d="M56 0v117h169v918h-169v118h382l548 -942v824h-165v118h472v-118h-173v-1035h-183l-578 997v-880h169v-117h-472z" />
    <glyph glyph-name="O" unicode="O" horiz-adv-x="1321" 
d="M66 575c0 334 225 596 594 596c371 0 596 -264 596 -596c0 -331 -225 -594 -596 -594c-370 0 -594 262 -594 594zM243 575c0 -252 165 -458 417 -458c254 0 418 206 418 458c0 257 -164 460 -418 460c-252 0 -417 -203 -417 -460z" />
    <glyph glyph-name="P" unicode="P" horiz-adv-x="1030" 
d="M63 0v117h151v918h-151v118h533c319 0 396 -192 396 -348c0 -267 -197 -333 -470 -333h-146v-355h158v-117h-471zM374 1035v-458h178c217 0 275 99 275 230c0 145 -81 228 -226 228h-227z" />
    <glyph glyph-name="Q" unicode="Q" horiz-adv-x="1323" 
d="M67 575c0 334 225 596 594 596c371 0 596 -264 596 -596c0 -301 -200 -545 -531 -580c90 -26 189 -76 288 -76c27 0 51 3 76 11l1 -148c-32 -9 -64 -13 -95 -13c-149 0 -243 101 -415 101c-101 0 -186 -20 -262 -53l-1 137c80 41 142 55 195 55
c-281 64 -446 291 -446 566zM244 575c0 -260 165 -458 417 -458c254 0 418 198 418 458c0 257 -164 460 -418 460c-252 0 -417 -203 -417 -460z" />
    <glyph glyph-name="R" unicode="R" horiz-adv-x="1107" 
d="M57 0v117h163v918h-163v118h551c263 0 380 -119 380 -298c0 -157 -83 -262 -259 -297l234 -441h146v-117h-253l-283 538h-193v-421h156v-117h-479zM380 657h223c173 0 220 102 220 198c0 113 -86 180 -227 180h-216v-378z" />
    <glyph glyph-name="S" unicode="S" horiz-adv-x="972" 
d="M527 -18c-113 0 -212 35 -296 105v-87h-135v387h135v-116c80 -104 167 -154 292 -154c136 0 222 81 222 187c0 150 -145 184 -323 226c-182 40 -334 113 -334 329c0 205 160 312 361 312c97 0 188 -32 264 -92v74h135v-327h-135v82c-61 84 -134 127 -243 127
c-148 0 -226 -73 -226 -168c0 -161 181 -173 356 -219c167 -44 310 -143 310 -342c0 -185 -155 -324 -383 -324z" />
    <glyph glyph-name="T" unicode="T" horiz-adv-x="1034" 
d="M262 0v117h175v918h-265v-230h-129v348h947v-348h-131v230h-259v-918h174v-117h-512z" />
    <glyph glyph-name="U" unicode="U" horiz-adv-x="1211" 
d="M184 1035h-150v118h452v-118h-142v-657c0 -170 68 -261 258 -261c204 0 266 98 266 272v646h-142v118h451v-118h-149c0 -317 2 -607 2 -655c0 -288 -192 -398 -416 -398c-356 0 -432 196 -432 400c0 23 2 378 2 546v107z" />
    <glyph glyph-name="V" unicode="V" horiz-adv-x="1208" 
d="M528 0l-403 1035h-146v118h455v-118h-141l317 -851l312 851h-141v118h445v-118h-146l-398 -1035h-154z" />
    <glyph glyph-name="W" unicode="W" horiz-adv-x="1759" 
d="M441 -10l-316 1045h-145v118h443v-118h-144l245 -825l123 413l117 412h-140v118h519v-118h-139l241 -825l125 413l119 412h-144v118h427v-118h-142l-310 -1045h-158l-286 938l-282 -938h-153z" />
    <glyph glyph-name="X" unicode="X" horiz-adv-x="1149" 
d="M18 0v117h161l313 465l-309 453h-154v118h462v-118h-135l222 -330l226 330h-140v118h446v-118h-151l-302 -440l328 -478h155v-117h-472v117h139l-236 353l-236 -353h144v-117h-461z" />
    <glyph glyph-name="Y" unicode="Y" horiz-adv-x="1130" 
d="M327 0v117h159v413l-358 505h-146v118h472v-118h-150l274 -387l257 387h-150v118h460v-118h-156l-343 -505v-413h164v-117h-483z" />
    <glyph glyph-name="Z" unicode="Z" horiz-adv-x="1010" 
d="M62 0v128l657 907h-498v-202h-129v320h832v-112l-667 -924h548v218h129v-335h-872z" />
    <glyph glyph-name="bracketleft" unicode="[" horiz-adv-x="569" 
d="M147 1263h394v-109h-251v-1266h251v-107h-394v1482z" />
    <glyph glyph-name="backslash" unicode="\" horiz-adv-x="793" 
d="M129 1171h129l434 -1189h-129z" />
    <glyph glyph-name="bracketright" unicode="]" horiz-adv-x="569" 
d="M32 1263h394v-1482h-394v107h251v1266h-251v109z" />
    <glyph glyph-name="asciicircum" unicode="^" horiz-adv-x="826" 
d="M492 1171l296 -566h-151l-222 435l-226 -435h-151l301 566h153z" />
    <glyph glyph-name="underscore" unicode="_" horiz-adv-x="898" 
d="M0 -82h898v-117h-898v117z" />
    <glyph glyph-name="grave" unicode="`" horiz-adv-x="562" 
d="M411 914h-119l-187 257h207z" />
    <glyph glyph-name="a" unicode="a" horiz-adv-x="889" 
d="M194 610l-92 98c72 72 180 112 317 112c252 0 325 -130 325 -266v-447h144v-107h-277l-2 83c-107 -77 -182 -101 -282 -101c-169 0 -272 111 -272 234c0 200 157 254 347 254c64 0 125 -7 193 -20v97c0 112 -84 154 -186 154c-92 0 -168 -30 -215 -91zM595 178v174
c-43 1 -111 16 -183 16c-105 0 -216 -21 -216 -152c0 -70 54 -127 152 -127c88 0 186 33 247 89z" />
    <glyph glyph-name="b" unicode="b" horiz-adv-x="1071" 
d="M23 0v107h145v925h-143v121h294v-446c84 77 175 113 296 113c246 0 398 -182 398 -410c0 -237 -154 -428 -399 -428c-116 0 -237 46 -296 129l-4 -111h-291zM582 107c171 0 268 127 268 289c0 160 -103 298 -271 298c-120 0 -208 -75 -260 -130v-335
c56 -53 146 -122 263 -122z" />
    <glyph glyph-name="c" unicode="c" horiz-adv-x="899" 
d="M740 246l89 -89c-72 -109 -197 -176 -365 -176c-293 0 -407 226 -407 417c0 245 171 422 406 422c125 0 209 -67 228 -107l-4 92h133v-288h-129c-21 96 -83 177 -220 177c-165 0 -255 -110 -255 -294c0 -176 88 -293 252 -293c113 0 212 47 272 139z" />
    <glyph glyph-name="d" unicode="d" horiz-adv-x="1071" 
d="M588 1153h310v-1046h152v-107h-304l-1 99c-85 -84 -173 -117 -286 -117c-207 0 -401 144 -401 418c0 228 158 420 404 420c117 0 208 -38 288 -107v322h-162v118zM485 107c118 0 205 65 263 115v345c-56 53 -149 127 -268 127c-168 0 -263 -134 -263 -298
c0 -155 97 -289 268 -289z" />
    <glyph glyph-name="e" unicode="e" horiz-adv-x="955" 
d="M898 365h-679c8 -155 115 -258 287 -258c104 0 207 50 261 126l102 -76c-68 -104 -187 -175 -367 -175c-277 0 -447 188 -447 420c0 244 191 418 443 418c265 0 400 -205 400 -438v-17zM223 467h531c-16 131 -107 227 -254 227c-163 0 -253 -91 -277 -227z" />
    <glyph glyph-name="f" unicode="f" horiz-adv-x="555" 
d="M65 0v107h120v587h-129v111h129l1 138c1 151 93 228 232 228c101 0 176 -57 192 -157l-108 -35c-15 51 -48 74 -80 74c-43 0 -86 -23 -86 -119v-129h153v-111h-153v-587h162v-107h-433z" />
    <glyph glyph-name="g" unicode="g" horiz-adv-x="1069" 
d="M485 -360c-125 0 -210 28 -304 95l67 102c68 -49 149 -73 230 -73c119 0 270 59 270 239v90c-55 -52 -181 -93 -290 -93c-248 0 -400 178 -400 392c0 231 158 428 406 428c106 0 201 -37 284 -111v96h301v-111h-151v-313c0 -153 1 -309 1 -324
c0 -317 -212 -417 -414 -417zM485 125c116 0 204 59 263 104v342c-54 51 -142 123 -260 123c-168 0 -271 -134 -271 -298c0 -150 97 -271 268 -271z" />
    <glyph glyph-name="h" unicode="h" horiz-adv-x="1024" 
d="M21 0v107h152v925h-150v121h299v-427c95 63 197 94 304 94c169 0 256 -88 256 -264c0 -7 -1 -114 -1 -221v-228h144v-107h-394v107h102v421c0 92 -28 166 -140 166c-81 0 -182 -27 -271 -87v-500h145v-107h-446z" />
    <glyph glyph-name="i" unicode="i" horiz-adv-x="509" 
d="M59 0v107h135v587h-135v111h284v-698h136v-107h-420zM176 1066c0 49 40 87 91 87c52 0 92 -38 92 -87s-40 -87 -92 -87c-51 0 -91 38 -91 87z" />
    <glyph glyph-name="j" unicode="j" horiz-adv-x="441" 
d="M-60 -361v126c31 -3 50 -4 77 -4c112 0 146 56 146 196v737h-152v111h303v-801c0 -202 -18 -369 -283 -372c-33 0 -59 2 -91 7zM143 1066c0 49 40 87 92 87s92 -38 92 -87s-40 -87 -92 -87s-92 38 -92 87z" />
    <glyph glyph-name="k" unicode="k" horiz-adv-x="995" 
d="M20 0v107h153v925h-153v121h301v-723l329 264h-139v111h447v-111h-132l-332 -279l342 -308h130v-107h-421v107h106l-330 298v-298h105v-107h-406z" />
    <glyph glyph-name="l" unicode="l" horiz-adv-x="487" 
d="M21 0v107h152v925h-149v121h298v-1046h133v-107h-434z" />
    <glyph glyph-name="m" unicode="m" horiz-adv-x="1554" 
d="M208 107v587h-143v111h289l5 -107c92 77 178 122 282 122c108 0 182 -52 218 -140c107 91 193 140 300 140c165 0 238 -111 238 -252v-461h145v-107h-405v107h113v430c0 96 -36 157 -128 157c-90 0 -203 -80 -242 -133v-454h125v-107h-389v107h112v427
c0 112 -45 160 -129 160s-155 -43 -240 -123v-464h125v-107h-426v107h150z" />
    <glyph glyph-name="n" unicode="n" horiz-adv-x="1031" 
d="M63 0v107h143v587h-149v111h296l4 -104c103 80 184 119 283 119c147 0 235 -101 235 -258l-1 -455h145v-107h-402v107h110v400c0 117 -30 187 -125 187c-92 0 -173 -55 -245 -124v-463h145v-107h-439z" />
    <glyph glyph-name="o" unicode="o" horiz-adv-x="966" 
d="M482 107c165 0 268 127 268 295c0 164 -103 292 -268 292c-164 0 -266 -128 -266 -292c0 -168 102 -295 266 -295zM482 -18c-260 0 -425 188 -425 420s166 418 427 418c260 0 426 -186 426 -418s-167 -420 -428 -420z" />
    <glyph glyph-name="p" unicode="p" horiz-adv-x="1058" 
d="M13 -368v124h153v938h-141v111h280l8 -107c76 80 181 122 289 122c248 0 399 -188 399 -420c0 -229 -158 -418 -401 -418c-108 0 -211 36 -287 105v-332h165v-123h-465zM578 107c171 0 268 127 268 289c0 160 -103 298 -271 298c-121 0 -210 -71 -262 -123v-360
c61 -48 147 -104 265 -104z" />
    <glyph glyph-name="q" unicode="q" horiz-adv-x="1063" 
d="M583 -368v124h162v334c-76 -72 -175 -108 -288 -108c-244 0 -399 188 -399 420c0 229 153 418 417 418c101 0 201 -41 270 -121c0 3 0 28 3 55l3 51h286v-111h-142v-939h152v-123h-464zM480 107c116 0 206 69 265 122v335c-53 56 -142 130 -254 130
c-189 0 -279 -138 -279 -298c0 -162 97 -289 268 -289z" />
    <glyph glyph-name="r" unicode="r" horiz-adv-x="761" 
d="M64 0v107h161v587h-167v111h289l1 -175c72 147 164 190 293 190c29 0 60 -2 93 -6l-5 -139c-3 3 -90 3 -98 3c-196 0 -256 -117 -256 -298v-273h176v-107h-487z" />
    <glyph glyph-name="s" unicode="s" horiz-adv-x="809" 
d="M77 0v263h133v-53c34 -66 88 -110 206 -110c117 0 183 41 183 117c0 85 -72 98 -178 114c-164 24 -346 63 -346 255c0 132 117 234 297 234c80 0 153 -32 205 -75v60h129v-256h-129v67c-47 57 -114 86 -199 86c-100 0 -162 -42 -162 -110c0 -176 536 -33 536 -364
c0 -147 -124 -246 -319 -246c-92 0 -163 20 -223 68v-50h-133z" />
    <glyph glyph-name="t" unicode="t" horiz-adv-x="528" 
d="M35 694v111h124v258l151 32v-290h173v-111h-173v-405c0 -122 1 -182 85 -182h118v-107h-138c-208 0 -216 130 -216 300v394h-124z" />
    <glyph glyph-name="u" unicode="u" horiz-adv-x="994" 
d="M970 0h-292l-5 100c-88 -80 -172 -118 -272 -118c-176 0 -249 107 -249 279v433h-120v111h272v-537c0 -104 33 -161 125 -161c93 0 180 59 244 143v444h-145v111h296v-698h146v-107z" />
    <glyph glyph-name="v" unicode="v" horiz-adv-x="960" 
d="M422 0l-278 694h-146v111h411v-111h-116l195 -523l195 523h-123v111h402v-111h-130l-274 -694h-136z" />
    <glyph glyph-name="w" unicode="w" horiz-adv-x="1403" 
d="M344 0l-233 694h-109v111h354v-111h-116l87 -282l86 -255l90 256l87 281h-95v111h398v-111h-95l181 -548l172 548h-122v111h373v-111h-122l-234 -694h-142l-205 606l-212 -606h-143z" />
    <glyph glyph-name="x" unicode="x" horiz-adv-x="989" 
d="M35 0v107h118l263 306l-247 281h-115v111h390v-111h-120l169 -194l163 194h-102v111h390v-111h-133l-239 -281l268 -306h108v-107h-396v107h135l-194 220l-181 -220h124v-107h-401z" />
    <glyph glyph-name="y" unicode="y" horiz-adv-x="982" 
d="M136 -309v201h111v-79c89 0 136 2 192 145l44 112h-95l-264 624h-125v111h406v-111h-108l202 -532h20l86 270l75 262h-115v111h413v-111h-129l-216 -658c-78 -237 -153 -355 -374 -355c-33 0 -82 3 -123 10z" />
    <glyph glyph-name="z" unicode="z" horiz-adv-x="833" 
d="M754 276v-276h-700v116l525 578h-364v-157h-121v268h663v-122l-532 -576h401v169h128z" />
    <glyph glyph-name="braceleft" unicode="{" horiz-adv-x="528" 
d="M30 410v129c125 0 148 94 148 251c0 221 -1 381 240 381h74v-119c-136 0 -165 -22 -165 -159c0 -270 -14 -356 -135 -418c105 -56 134 -140 134 -353c0 -201 -1 -225 166 -225v-120h-73c-239 0 -241 152 -241 373c0 164 -18 260 -148 260z" />
    <glyph glyph-name="bar" unicode="|" horiz-adv-x="404" 
d="M141 1153h122v-1249h-122v1249z" />
    <glyph glyph-name="braceright" unicode="}" horiz-adv-x="528" 
d="M492 539v-129c-130 0 -148 -96 -148 -260c0 -221 -2 -373 -241 -373h-73v120c165 0 166 22 166 218c0 218 27 304 134 360c-121 62 -135 148 -135 418c0 137 -29 159 -165 159v119h74c239 0 240 -157 240 -376c0 -160 21 -256 148 -256z" />
    <glyph glyph-name="asciitilde" unicode="~" horiz-adv-x="1062" 
d="M924 651l63 -78c-60 -97 -129 -132 -209 -132c-155 0 -334 137 -484 137c-60 0 -114 -22 -162 -82l-55 77c69 100 146 136 230 136c152 0 324 -124 468 -124c56 0 104 18 149 66z" />
    <glyph glyph-name="exclamdown" unicode="&#xa1;" horiz-adv-x="466" 
d="M147 350l42 497h88l42 -497v-350h-172v350zM127 959v212h212v-212h-212z" />
    <glyph glyph-name="cent" unicode="&#xa2;" horiz-adv-x="918" 
d="M740 246l89 -89c-72 -109 -197 -176 -365 -176c-39 0 -73 4 -106 11l-120 -360h-82l128 384c-160 69 -227 236 -227 382c0 245 171 422 406 422c30 0 59 -4 87 -11l115 344h83l-126 -375c36 -21 60 -46 69 -65l-4 92h133v-288h-129c-15 64 -46 120 -106 151l-186 -554
c18 -5 41 -7 69 -7c113 0 212 47 272 139zM216 400c0 -117 38 -207 111 -255l183 546c-12 2 -25 3 -39 3c-165 0 -255 -110 -255 -294z" />
    <glyph glyph-name="sterling" unicode="&#xa3;" horiz-adv-x="993" 
d="M128 549v87h181c-45 75 -79 191 -79 253c0 179 129 282 312 282c204 0 315 -120 315 -308h-135c0 107 -43 189 -173 189c-105 0 -176 -53 -176 -154c0 -66 43 -173 86 -262h249v-87h-214c15 -56 21 -108 21 -161c0 -60 -8 -121 -23 -173c76 -46 139 -91 209 -91
c92 0 133 58 140 166h93c0 -199 -95 -309 -233 -309c-94 0 -167 46 -257 117c-48 -72 -109 -117 -189 -117c-135 0 -195 84 -195 169c0 92 68 188 188 188c53 0 99 -16 148 -47c1 12 1 24 1 36c0 80 -14 142 -45 222h-224zM370 157c-56 64 -95 90 -136 90
c-44 0 -72 -49 -72 -96c0 -44 25 -86 85 -86c49 0 84 28 123 92z" />
    <glyph glyph-name="currency" unicode="&#xa4;" horiz-adv-x="929" 
d="M129 806c0 79 24 146 73 201l-80 81l69 69l86 -86c53 33 115 53 187 53s135 -20 188 -55l88 88l69 -69l-83 -83c48 -57 72 -124 72 -199c0 -80 -27 -147 -74 -203l85 -84l-69 -68l-90 88c-53 -35 -115 -53 -186 -53c-72 0 -133 19 -185 52l-88 -87l-69 68l82 82
c-47 56 -75 125 -75 205zM464 1006c-131 0 -195 -102 -195 -202c0 -102 67 -204 195 -204c131 0 194 102 194 202c0 102 -65 204 -194 204z" />
    <glyph glyph-name="yen" unicode="&#xa5;" horiz-adv-x="1261" 
d="M249 414h237v89h-237v119h170l-291 404h-146v127h472v-127h-150l274 -378l257 378h-150v127h460v-127h-156l-280 -404h176v-119h-239v-89h239v-117h-239v-172h164v-125h-483v125h159v172h-237v117z" />
    <glyph glyph-name="brokenbar" unicode="&#xa6;" horiz-adv-x="404" 
d="M141 1153h122v-419h-122v419zM141 346h122v-448h-122v448z" />
    <glyph glyph-name="section" unicode="&#xa7;" horiz-adv-x="877" 
d="M770 969l-125 -45c-25 88 -92 129 -181 129c-119 0 -205 -58 -205 -140c0 -235 550 -172 550 -494c0 -97 -53 -179 -159 -246c84 -49 131 -127 131 -219c0 -165 -129 -280 -316 -280c-141 0 -244 65 -305 166l102 83c39 -80 106 -126 206 -126c106 0 172 62 172 145
c0 224 -552 165 -552 489c0 95 48 168 160 243c-84 51 -130 129 -130 225c0 151 140 272 332 272c145 0 275 -61 320 -202zM560 220c84 44 125 103 125 168c0 135 -183 155 -354 238c-84 -51 -118 -98 -118 -162c0 -136 173 -155 347 -244z" />
    <glyph glyph-name="dieresis" unicode="&#xa8;" horiz-adv-x="572" 
d="M371 1101h152v-153h-152v153zM58 1101h154v-153h-154v153z" />
    <glyph glyph-name="copyright" unicode="&#xa9;" horiz-adv-x="1423" 
d="M658 1170c400 0 600 -299 600 -595c0 -297 -200 -594 -600 -594s-600 297 -600 594c0 296 200 595 600 595zM658 1076c-324 0 -484 -253 -484 -501c0 -249 160 -502 484 -502c323 0 483 253 483 502c0 248 -160 501 -483 501zM853 469l64 -65
c-51 -80 -143 -127 -264 -127c-211 0 -294 165 -294 301c0 179 125 305 294 305c91 0 151 -48 164 -77l-2 66h96v-208h-94c-16 70 -59 128 -159 128c-121 0 -184 -79 -184 -212c0 -127 65 -212 182 -212c84 0 154 33 197 101z" />
    <glyph glyph-name="ordfeminine" unicode="&#xaa;" horiz-adv-x="696" 
d="M141 1014l-69 73c56 56 135 84 238 84c189 0 244 -97 244 -200v-331h108v-85h-208l-1 62c-80 -56 -137 -76 -212 -76c-128 0 -205 84 -205 176c0 151 117 191 261 191c47 0 95 -5 145 -15v73c0 84 -63 116 -140 116c-69 0 -126 -23 -161 -68zM442 689v131
c-32 0 -81 12 -137 12c-79 0 -163 -16 -163 -115c0 -52 39 -95 115 -95c68 0 138 24 185 67z" />
    <glyph glyph-name="guillemotleft" unicode="&#xab;" horiz-adv-x="904" 
d="M581 418l257 -418h-142l-265 418l265 419h142zM210 418l258 -418h-143l-263 418l263 419h143z" />
    <glyph glyph-name="logicalnot" unicode="&#xac;" horiz-adv-x="1113" 
d="M56 842h937v-538h-117v420h-820v118z" />
    <glyph glyph-name="uni00AD" unicode="&#xad;" horiz-adv-x="1707" 
 />
    <glyph glyph-name="registered" unicode="&#xae;" horiz-adv-x="1338" 
d="M668 1170c400 0 600 -299 600 -595c0 -297 -200 -594 -600 -594s-600 297 -600 594c0 296 200 595 600 595zM668 1076c-324 0 -484 -253 -484 -501c0 -249 160 -502 484 -502c323 0 483 253 483 502c0 248 -160 501 -483 501zM393 269v68h88v489h-88v69h299
c143 0 206 -65 206 -162c0 -84 -47 -142 -140 -161l127 -235h79v-68h-137l-154 292h-105v-224h85v-68h-260zM568 631h121c94 0 120 52 120 102c0 64 -48 93 -124 93h-117v-195z" />
    <glyph glyph-name="degree" unicode="&#xb0;" horiz-adv-x="653" 
d="M327 1130c-100 0 -172 -77 -172 -172c0 -94 72 -171 172 -171c93 0 171 72 171 171c0 85 -63 172 -171 172zM327 1216c144 0 258 -115 258 -259c0 -143 -114 -259 -258 -259c-143 0 -259 116 -259 259c0 144 116 259 259 259z" />
    <glyph glyph-name="plusminus" unicode="&#xb1;" horiz-adv-x="1119" 
d="M91 80h937v-119h-937v119zM617 775h411v-119h-411v-409h-115v409h-411v119h411v408h115v-408z" />
    <glyph glyph-name="twosuperior" unicode="&#xb2;" horiz-adv-x="747" 
d="M559 400v180h94v-281h-566c-1 13 -2 26 -2 39c0 329 448 389 448 597c0 84 -50 134 -158 134c-118 0 -159 -63 -159 -216h-107c0 217 89 317 265 317c215 0 283 -128 283 -232c0 -264 -403 -322 -449 -538h351z" />
    <glyph glyph-name="threesuperior" unicode="&#xb3;" horiz-adv-x="783" 
d="M91 554l110 3c11 -109 75 -174 183 -174c131 0 198 65 198 150c0 128 -122 160 -274 160v99h65c121 0 180 41 180 137c0 79 -57 140 -177 140c-100 0 -148 -60 -153 -148l-111 20c5 139 107 230 261 230c181 0 295 -84 295 -230c0 -85 -34 -163 -146 -195
c117 -21 180 -103 180 -207c0 -152 -119 -256 -326 -256c-164 0 -285 88 -285 271z" />
    <glyph glyph-name="acute" unicode="&#xb4;" horiz-adv-x="562" 
d="M284 914h-119l99 257h207z" />
    <glyph glyph-name="mu" unicode="&#xb5;" horiz-adv-x="925" 
d="M970 0h-292l-5 100c-88 -80 -172 -118 -272 -118c-48 0 -88 7 -120 22v-372h-129v1057h-120v116h272v-537c0 -104 33 -161 125 -161c93 0 180 59 244 143v439h-145v116h296v-692h146v-113z" />
    <glyph glyph-name="mu" unicode="&#x3bc;" horiz-adv-x="925" 
d="M970 0h-292l-5 100c-88 -80 -172 -118 -272 -118c-48 0 -88 7 -120 22v-372h-129v1057h-120v116h272v-537c0 -104 33 -161 125 -161c93 0 180 59 244 143v439h-145v116h296v-692h146v-113z" />
    <glyph glyph-name="paragraph" unicode="&#xb6;" horiz-adv-x="1096" 
d="M1020 1196v-140h-138v-1429h-135v1429h-201v-1429h-135v851c-229 8 -361 159 -361 358c0 197 133 360 401 360h569z" />
    <glyph glyph-name="cedilla" unicode="&#xb8;" horiz-adv-x="587" 
d="M128 -355v92c31 -5 59 -8 86 -8c56 0 95 14 95 53c0 33 -38 53 -98 58l58 165h72l-27 -124c80 -9 128 -43 128 -99c0 -69 -54 -145 -214 -145c-31 0 -63 1 -100 8z" />
    <glyph glyph-name="onesuperior" unicode="&#xb9;" horiz-adv-x="476" 
d="M63 299v93h123v667h-129v94h240v-761h114v-93h-348z" />
    <glyph glyph-name="ordmasculine" unicode="&#xba;" horiz-adv-x="704" 
d="M180 951c0 -96 74 -169 173 -169c97 0 171 73 171 169s-74 167 -171 167c-99 0 -173 -71 -173 -167zM68 951c0 152 122 264 285 264s284 -112 284 -264c0 -151 -121 -264 -284 -264s-285 113 -285 264z" />
    <glyph glyph-name="guillemotright" unicode="&#xbb;" horiz-adv-x="905" 
d="M694 418l-257 419h143l263 -419l-263 -418h-143zM323 418l-257 419h143l264 -419l-264 -418h-143z" />
    <glyph glyph-name="onequarter" unicode="&#xbc;" horiz-adv-x="1665" 
d="M500 0l415 1170h89l-414 -1170h-90zM68 299v93h123v667h-129v94h240v-761h114v-93h-348zM1149 0v101h132v153h-371v98l374 579h112v-579h153v-98h-153v-153h120v-101h-367zM1281 352v413l-254 -413h254z" />
    <glyph glyph-name="onehalf" unicode="&#xbd;" horiz-adv-x="1690" 
d="M500 0l415 1170h89l-414 -1170h-90zM63 299v93h123v667h-129v94h240v-761h114v-93h-348zM1492 85v180h94v-281h-566c-1 13 -2 26 -2 39c0 329 448 389 448 597c0 84 -50 134 -158 134c-118 0 -159 -63 -159 -216h-107c0 217 89 317 265 317c215 0 283 -128 283 -232
c0 -264 -403 -322 -449 -538h351z" />
    <glyph glyph-name="threequarters" unicode="&#xbe;" horiz-adv-x="1936" 
d="M731 0l415 1170h89l-414 -1170h-90zM96 554l110 3c11 -109 75 -174 183 -174c131 0 198 65 198 150c0 128 -122 160 -274 160v99h65c121 0 180 41 180 137c0 79 -57 140 -177 140c-100 0 -148 -60 -153 -148l-111 20c5 139 107 230 261 230c181 0 295 -84 295 -230
c0 -85 -34 -163 -146 -195c117 -21 180 -103 180 -207c0 -152 -119 -256 -326 -256c-164 0 -285 88 -285 271zM1404 0v101h132v153h-371v98l374 579h112v-579h153v-98h-153v-153h120v-101h-367zM1536 352v413l-254 -413h254z" />
    <glyph glyph-name="questiondown" unicode="&#xbf;" horiz-adv-x="796" 
d="M392 873h85c0 -11 1 -20 1 -31c0 -454 -279 -311 -279 -558c0 -109 88 -182 196 -182c133 0 212 80 212 229v10c0 3 0 5 -1 6h134c1 -8 2 -15 2 -23c0 -249 -177 -343 -345 -343c-189 0 -339 119 -339 303c0 324 313 185 334 589zM344 999v197h172v-197h-172z" />
    <glyph glyph-name="Agrave" unicode="&#xc0;" horiz-adv-x="1196" 
d="M318 1153h560v-118h-101l161 -484c50 -153 97 -303 133 -434h137v-117h-453v117h150l-85 307h-445l-84 -307h149v-117h-453v117h138c77 286 194 628 293 918h-100v118zM405 545h385c-27 87 -70 247 -155 490h-74c-85 -244 -131 -402 -156 -490zM751 1262h-119l-187 257
h207z" />
    <glyph glyph-name="Aacute" unicode="&#xc1;" horiz-adv-x="1196" 
d="M318 1153h560v-118h-101l161 -484c50 -153 97 -303 133 -434h137v-117h-453v117h150l-85 307h-445l-84 -307h149v-117h-453v117h138c77 286 194 628 293 918h-100v118zM405 545h385c-27 87 -70 247 -155 490h-74c-85 -244 -131 -402 -156 -490zM564 1262h-119l99 257h207
z" />
    <glyph glyph-name="Acircumflex" unicode="&#xc2;" horiz-adv-x="1196" 
d="M318 1153h560v-118h-101l161 -484c50 -153 97 -303 133 -434h137v-117h-453v117h150l-85 307h-445l-84 -307h149v-117h-453v117h138c77 286 194 628 293 918h-100v118zM405 545h385c-27 87 -70 247 -155 490h-74c-85 -244 -131 -402 -156 -490zM502 1244h-143l98 275h275
l104 -275h-148l-93 230z" />
    <glyph glyph-name="Atilde" unicode="&#xc3;" horiz-adv-x="1196" 
d="M318 1153h560v-118h-101l161 -484c50 -153 97 -303 133 -434h137v-117h-453v117h150l-85 307h-445l-84 -307h149v-117h-453v117h138c77 286 194 628 293 918h-100v118zM405 545h385c-27 87 -70 247 -155 490h-74c-85 -244 -131 -402 -156 -490zM373 1328h-80
c13 147 89 209 176 209c102 0 201 -70 278 -70c41 0 67 22 77 65h78c-11 -133 -74 -213 -179 -213c-112 0 -204 71 -282 71c-43 0 -60 -22 -68 -62z" />
    <glyph glyph-name="Adieresis" unicode="&#xc4;" horiz-adv-x="1196" 
d="M318 1153h560v-118h-101l161 -484c50 -153 97 -303 133 -434h137v-117h-453v117h150l-85 307h-445l-84 -307h149v-117h-453v117h138c77 286 194 628 293 918h-100v118zM405 545h385c-27 87 -70 247 -155 490h-74c-85 -244 -131 -402 -156 -490zM678 1449h152v-153h-152
v153zM365 1449h154v-153h-154v153z" />
    <glyph glyph-name="Aring" unicode="&#xc5;" horiz-adv-x="1196" 
d="M318 1153h560v-118h-101l161 -484c50 -153 97 -303 133 -434h137v-117h-453v117h150l-85 307h-445l-84 -307h149v-117h-453v117h138c77 286 194 628 293 918h-100v118zM405 545h385c-27 87 -70 247 -155 490h-74c-85 -244 -131 -402 -156 -490zM597 1549
c94 0 169 -68 169 -159s-75 -161 -169 -161s-168 70 -168 161s74 159 168 159zM597 1488c-59 0 -105 -42 -105 -98s46 -99 105 -99s104 43 104 99s-45 98 -104 98z" />
    <glyph glyph-name="AE" unicode="&#xc6;" horiz-adv-x="1733" 
d="M1487 1153l76 -321h-132l-45 194h-516l88 -371h362l-24 114h97l85 -359h-98l-39 138h-359l104 -423h491l-49 203h129l78 -328h-991l12 125h169l-71 299h-461l-102 -299h150l-11 -125h-453l11 125h137l371 910h-102l16 118h1077zM442 545h383l-115 481h-76z" />
    <glyph glyph-name="Ccedilla" unicode="&#xc7;" horiz-adv-x="1249" 
d="M643 -19c-353 0 -574 242 -574 594c0 353 219 596 601 596c153 0 273 -61 357 -149v131h130v-349h-125c-77 156 -216 231 -384 231c-252 0 -402 -195 -402 -455c0 -257 115 -463 408 -463c169 0 333 65 399 261l135 -71c-109 -263 -345 -326 -545 -326zM467 -355v92
c31 -5 59 -8 86 -8c56 0 95 14 95 53c0 33 -38 53 -98 58l58 165h72l-27 -124c80 -9 128 -43 128 -99c0 -69 -54 -145 -214 -145c-31 0 -63 1 -100 8z" />
    <glyph glyph-name="Egrave" unicode="&#xc8;" horiz-adv-x="1119" 
d="M60 0v117h156v918h-156v118h971v-321h-131v203h-525v-380h362v114h100v-359h-101v116h-359v-409h525v211h129v-328h-971zM712 1262h-119l-187 257h207z" />
    <glyph glyph-name="Eacute" unicode="&#xc9;" horiz-adv-x="1119" 
d="M60 0v117h156v918h-156v118h971v-321h-131v203h-525v-380h362v114h100v-359h-101v116h-359v-409h525v211h129v-328h-971zM525 1262h-119l99 257h207z" />
    <glyph glyph-name="Ecircumflex" unicode="&#xca;" horiz-adv-x="1119" 
d="M60 0v117h156v918h-156v118h971v-321h-131v203h-525v-380h362v114h100v-359h-101v116h-359v-409h525v211h129v-328h-971zM464 1244h-143l98 275h275l104 -275h-148l-93 230z" />
    <glyph glyph-name="Edieresis" unicode="&#xcb;" horiz-adv-x="1119" 
d="M60 0v117h156v918h-156v118h971v-321h-131v203h-525v-380h362v114h100v-359h-101v116h-359v-409h525v211h129v-328h-971zM640 1449h152v-153h-152v153zM327 1449h154v-153h-154v153z" />
    <glyph glyph-name="Igrave" unicode="&#xcc;" horiz-adv-x="581" 
d="M75 0v117h134v918h-134v118h428v-118h-132v-918h132v-117h-428zM443 1262h-119l-187 257h207z" />
    <glyph glyph-name="Iacute" unicode="&#xcd;" horiz-adv-x="581" 
d="M75 0v117h134v918h-134v118h428v-118h-132v-918h132v-117h-428zM257 1262h-119l99 257h207z" />
    <glyph glyph-name="Icircumflex" unicode="&#xce;" horiz-adv-x="581" 
d="M75 0v117h134v918h-134v118h428v-118h-132v-918h132v-117h-428zM195 1244h-143l98 275h275l104 -275h-148l-93 230z" />
    <glyph glyph-name="Idieresis" unicode="&#xcf;" horiz-adv-x="581" 
d="M75 0v117h134v918h-134v118h428v-118h-132v-918h132v-117h-428zM371 1449h152v-153h-152v153zM58 1449h154v-153h-154v153z" />
    <glyph glyph-name="Eth" unicode="&#xd0;" horiz-adv-x="1273" 
d="M59 0v125h159v381h-157v144h157v376h-159v127h554c457 0 586 -296 586 -566c0 -354 -171 -587 -600 -587h-540zM380 1026v-376h198v-144h-198v-381h225c336 0 429 209 429 456c0 253 -113 445 -425 445h-229z" />
    <glyph glyph-name="Ntilde" unicode="&#xd1;" horiz-adv-x="1322" 
d="M56 0v117h169v918h-169v118h382l548 -942v824h-165v118h472v-118h-173v-1035h-183l-578 997v-880h169v-117h-472zM436 1328h-80c13 147 89 209 176 209c102 0 201 -70 278 -70c41 0 67 22 77 65h78c-11 -133 -74 -213 -179 -213c-112 0 -204 71 -282 71
c-43 0 -60 -22 -68 -62z" />
    <glyph glyph-name="Ograve" unicode="&#xd2;" horiz-adv-x="1321" 
d="M66 575c0 334 225 596 594 596c371 0 596 -264 596 -596c0 -331 -225 -594 -596 -594c-370 0 -594 262 -594 594zM243 575c0 -252 165 -458 417 -458c254 0 418 206 418 458c0 257 -164 460 -418 460c-252 0 -417 -203 -417 -460zM813 1262h-119l-187 257h207z" />
    <glyph glyph-name="Oacute" unicode="&#xd3;" horiz-adv-x="1321" 
d="M66 575c0 334 225 596 594 596c371 0 596 -264 596 -596c0 -331 -225 -594 -596 -594c-370 0 -594 262 -594 594zM243 575c0 -252 165 -458 417 -458c254 0 418 206 418 458c0 257 -164 460 -418 460c-252 0 -417 -203 -417 -460zM626 1262h-119l99 257h207z" />
    <glyph glyph-name="Ocircumflex" unicode="&#xd4;" horiz-adv-x="1321" 
d="M66 575c0 334 225 596 594 596c371 0 596 -264 596 -596c0 -331 -225 -594 -596 -594c-370 0 -594 262 -594 594zM243 575c0 -252 165 -458 417 -458c254 0 418 206 418 458c0 257 -164 460 -418 460c-252 0 -417 -203 -417 -460zM565 1244h-143l98 275h275l104 -275
h-148l-93 230z" />
    <glyph glyph-name="Otilde" unicode="&#xd5;" horiz-adv-x="1321" 
d="M66 575c0 334 225 596 594 596c371 0 596 -264 596 -596c0 -331 -225 -594 -596 -594c-370 0 -594 262 -594 594zM243 575c0 -252 165 -458 417 -458c254 0 418 206 418 458c0 257 -164 460 -418 460c-252 0 -417 -203 -417 -460zM436 1328h-80c13 147 89 209 176 209
c102 0 201 -70 278 -70c41 0 67 22 77 65h78c-11 -133 -74 -213 -179 -213c-112 0 -204 71 -282 71c-43 0 -60 -22 -68 -62z" />
    <glyph glyph-name="Odieresis" unicode="&#xd6;" horiz-adv-x="1321" 
d="M66 575c0 334 225 596 594 596c371 0 596 -264 596 -596c0 -331 -225 -594 -596 -594c-370 0 -594 262 -594 594zM243 575c0 -252 165 -458 417 -458c254 0 418 206 418 458c0 257 -164 460 -418 460c-252 0 -417 -203 -417 -460zM741 1449h152v-153h-152v153zM428 1449
h154v-153h-154v153z" />
    <glyph glyph-name="multiply" unicode="&#xd7;" horiz-adv-x="929" 
d="M180 225l210 209l-210 210l83 83l210 -210l211 210l83 -83l-211 -210l211 -209l-84 -82l-210 209l-209 -209z" />
    <glyph glyph-name="Oslash" unicode="&#xd8;" horiz-adv-x="1320" 
d="M65 575c0 334 225 596 594 596c84 0 162 -14 234 -41l54 105l94 -43l-54 -108c169 -103 268 -292 268 -509c0 -331 -225 -594 -596 -594c-81 0 -153 11 -215 34l-55 -107l-94 43l53 106c-180 98 -283 294 -283 518zM242 575c0 -161 63 -297 176 -381l410 808
c-49 23 -106 34 -169 34c-252 0 -417 -204 -417 -461zM1077 575c0 153 -59 288 -160 372l-408 -803c48 -17 98 -26 150 -26c254 0 418 205 418 457z" />
    <glyph glyph-name="Ugrave" unicode="&#xd9;" horiz-adv-x="1211" 
d="M184 1035h-150v118h452v-118h-142v-657c0 -170 68 -261 258 -261c204 0 266 98 266 272v646h-142v118h451v-118h-149c0 -317 2 -607 2 -655c0 -288 -192 -398 -416 -398c-356 0 -432 196 -432 400c0 23 2 378 2 546v107zM758 1262h-119l-187 257h207z" />
    <glyph glyph-name="Uacute" unicode="&#xda;" horiz-adv-x="1211" 
d="M184 1035h-150v118h452v-118h-142v-657c0 -170 68 -261 258 -261c204 0 266 98 266 272v646h-142v118h451v-118h-149c0 -317 2 -607 2 -655c0 -288 -192 -398 -416 -398c-356 0 -432 196 -432 400c0 23 2 378 2 546v107zM571 1262h-119l99 257h207z" />
    <glyph glyph-name="Ucircumflex" unicode="&#xdb;" horiz-adv-x="1211" 
d="M184 1035h-150v118h452v-118h-142v-657c0 -170 68 -261 258 -261c204 0 266 98 266 272v646h-142v118h451v-118h-149c0 -317 2 -607 2 -655c0 -288 -192 -398 -416 -398c-356 0 -432 196 -432 400c0 23 2 378 2 546v107zM510 1244h-143l98 275h275l104 -275h-148l-93 230
z" />
    <glyph glyph-name="Udieresis" unicode="&#xdc;" horiz-adv-x="1211" 
d="M184 1035h-150v118h452v-118h-142v-657c0 -170 68 -261 258 -261c204 0 266 98 266 272v646h-142v118h451v-118h-149c0 -317 2 -607 2 -655c0 -288 -192 -398 -416 -398c-356 0 -432 196 -432 400c0 23 2 378 2 546v107zM686 1449h152v-153h-152v153zM373 1449h154v-153
h-154v153z" />
    <glyph glyph-name="Yacute" unicode="&#xdd;" horiz-adv-x="1130" 
d="M327 0v117h159v413l-358 505h-146v118h472v-118h-150l274 -387l257 387h-150v118h460v-118h-156l-343 -505v-413h164v-117h-483zM531 1262h-119l99 257h207z" />
    <glyph glyph-name="Thorn" unicode="&#xde;" horiz-adv-x="1030" 
d="M63 0v125h151v901h-151v127h311v-152h222c319 0 396 -192 396 -348c0 -283 -197 -353 -470 -353h-146v-175h158v-125h-471zM374 874v-449h178c217 0 275 99 275 230c0 145 -81 219 -226 219h-227z" />
    <glyph glyph-name="germandbls" unicode="&#xdf;" horiz-adv-x="1114" 
d="M362 125h131v-125h-421v125h150v661c0 243 121 385 384 385c191 0 319 -114 319 -282c0 -116 -53 -209 -177 -248c180 -30 287 -141 287 -295c0 -200 -118 -346 -422 -346v125c149 0 276 42 276 221c0 123 -81 223 -316 223v106c153 0 209 103 209 204s-69 169 -176 169
c-147 0 -244 -69 -244 -258v-665z" />
    <glyph glyph-name="agrave" unicode="&#xe0;" horiz-adv-x="889" 
d="M194 610l-92 98c72 72 180 112 317 112c252 0 325 -130 325 -266v-447h144v-107h-277l-2 83c-107 -77 -182 -101 -282 -101c-169 0 -272 111 -272 234c0 200 157 254 347 254c64 0 125 -7 193 -20v97c0 112 -84 154 -186 154c-92 0 -168 -30 -215 -91zM595 178v174
c-43 1 -111 16 -183 16c-105 0 -216 -21 -216 -152c0 -70 54 -127 152 -127c88 0 186 33 247 89zM597 914h-119l-187 257h207z" />
    <glyph glyph-name="aacute" unicode="&#xe1;" horiz-adv-x="889" 
d="M194 610l-92 98c72 72 180 112 317 112c252 0 325 -130 325 -266v-447h144v-107h-277l-2 83c-107 -77 -182 -101 -282 -101c-169 0 -272 111 -272 234c0 200 157 254 347 254c64 0 125 -7 193 -20v97c0 112 -84 154 -186 154c-92 0 -168 -30 -215 -91zM595 178v174
c-43 1 -111 16 -183 16c-105 0 -216 -21 -216 -152c0 -70 54 -127 152 -127c88 0 186 33 247 89zM410 914h-119l99 257h207z" />
    <glyph glyph-name="acircumflex" unicode="&#xe2;" horiz-adv-x="889" 
d="M194 610l-92 98c72 72 180 112 317 112c252 0 325 -130 325 -266v-447h144v-107h-277l-2 83c-107 -77 -182 -101 -282 -101c-169 0 -272 111 -272 234c0 200 157 254 347 254c64 0 125 -7 193 -20v97c0 112 -84 154 -186 154c-92 0 -168 -30 -215 -91zM595 178v174
c-43 1 -111 16 -183 16c-105 0 -216 -21 -216 -152c0 -70 54 -127 152 -127c88 0 186 33 247 89zM349 896h-143l98 275h275l104 -275h-148l-93 230z" />
    <glyph glyph-name="atilde" unicode="&#xe3;" horiz-adv-x="889" 
d="M194 610l-92 98c72 72 180 112 317 112c252 0 325 -130 325 -266v-447h144v-107h-277l-2 83c-107 -77 -182 -101 -282 -101c-169 0 -272 111 -272 234c0 200 157 254 347 254c64 0 125 -7 193 -20v97c0 112 -84 154 -186 154c-92 0 -168 -30 -215 -91zM595 178v174
c-43 1 -111 16 -183 16c-105 0 -216 -21 -216 -152c0 -70 54 -127 152 -127c88 0 186 33 247 89zM220 980h-80c13 147 89 209 176 209c102 0 201 -70 278 -70c41 0 67 22 77 65h78c-11 -133 -74 -213 -179 -213c-112 0 -204 71 -282 71c-43 0 -60 -22 -68 -62z" />
    <glyph glyph-name="adieresis" unicode="&#xe4;" horiz-adv-x="889" 
d="M194 610l-92 98c72 72 180 112 317 112c252 0 325 -130 325 -266v-447h144v-107h-277l-2 83c-107 -77 -182 -101 -282 -101c-169 0 -272 111 -272 234c0 200 157 254 347 254c64 0 125 -7 193 -20v97c0 112 -84 154 -186 154c-92 0 -168 -30 -215 -91zM595 178v174
c-43 1 -111 16 -183 16c-105 0 -216 -21 -216 -152c0 -70 54 -127 152 -127c88 0 186 33 247 89zM525 1101h152v-153h-152v153zM212 1101h154v-153h-154v153z" />
    <glyph glyph-name="aring" unicode="&#xe5;" horiz-adv-x="889" 
d="M194 610l-92 98c72 72 180 112 317 112c252 0 325 -130 325 -266v-447h144v-107h-277l-2 83c-107 -77 -182 -101 -282 -101c-169 0 -272 111 -272 234c0 200 157 254 347 254c64 0 125 -7 193 -20v97c0 112 -84 154 -186 154c-92 0 -168 -30 -215 -91zM595 178v174
c-43 1 -111 16 -183 16c-105 0 -216 -21 -216 -152c0 -70 54 -127 152 -127c88 0 186 33 247 89zM444 1201c94 0 169 -68 169 -159s-75 -161 -169 -161s-168 70 -168 161s74 159 168 159zM444 1140c-59 0 -105 -42 -105 -98s46 -99 105 -99s104 43 104 99s-45 98 -104 98z
" />
    <glyph glyph-name="ae" unicode="&#xe6;" horiz-adv-x="1453" 
d="M327 -14c-169 0 -272 112 -272 235c0 192 157 249 347 249c64 0 125 -7 193 -20v97c0 118 -89 162 -196 162c-84 0 -146 -28 -185 -83l-140 39c61 105 176 162 345 162c155 0 240 -62 283 -147c77 92 181 147 310 147c253 0 382 -208 382 -445v-19l-635 2
c19 -155 104 -264 260 -264c100 0 191 43 247 116l128 -56c-73 -117 -205 -184 -378 -184c-141 0 -249 46 -329 126c-125 -77 -219 -117 -360 -117zM763 467h488c-22 132 -101 246 -237 246c-144 0 -232 -105 -251 -246zM595 178v174c-43 1 -111 16 -183 16
c-105 0 -216 -23 -216 -147c0 -72 52 -125 152 -125c87 0 186 32 247 82z" />
    <glyph glyph-name="ccedilla" unicode="&#xe7;" horiz-adv-x="899" 
d="M740 246l89 -89c-72 -109 -197 -176 -365 -176c-293 0 -407 226 -407 417c0 245 171 422 406 422c125 0 209 -67 228 -107l-4 92h133v-288h-129c-21 96 -83 177 -220 177c-165 0 -255 -110 -255 -294c0 -176 88 -293 252 -293c113 0 212 47 272 139zM292 -355v92
c31 -5 59 -8 86 -8c56 0 95 14 95 53c0 33 -38 53 -98 58l58 165h72l-27 -124c80 -9 128 -43 128 -99c0 -69 -54 -145 -214 -145c-31 0 -63 1 -100 8z" />
    <glyph glyph-name="egrave" unicode="&#xe8;" horiz-adv-x="955" 
d="M898 365h-679c8 -155 115 -258 287 -258c104 0 207 50 261 126l102 -76c-68 -104 -187 -175 -367 -175c-277 0 -447 188 -447 420c0 244 191 418 443 418c265 0 400 -205 400 -438v-17zM223 467h531c-16 131 -107 227 -254 227c-163 0 -253 -91 -277 -227zM630 914h-119
l-187 257h207z" />
    <glyph glyph-name="eacute" unicode="&#xe9;" horiz-adv-x="955" 
d="M898 365h-679c8 -155 115 -258 287 -258c104 0 207 50 261 126l102 -76c-68 -104 -187 -175 -367 -175c-277 0 -447 188 -447 420c0 244 191 418 443 418c265 0 400 -205 400 -438v-17zM223 467h531c-16 131 -107 227 -254 227c-163 0 -253 -91 -277 -227zM443 914h-119
l99 257h207z" />
    <glyph glyph-name="ecircumflex" unicode="&#xea;" horiz-adv-x="955" 
d="M898 365h-679c8 -155 115 -258 287 -258c104 0 207 50 261 126l102 -76c-68 -104 -187 -175 -367 -175c-277 0 -447 188 -447 420c0 244 191 418 443 418c265 0 400 -205 400 -438v-17zM223 467h531c-16 131 -107 227 -254 227c-163 0 -253 -91 -277 -227zM382 896h-143
l98 275h275l104 -275h-148l-93 230z" />
    <glyph glyph-name="edieresis" unicode="&#xeb;" horiz-adv-x="955" 
d="M898 365h-679c8 -155 115 -258 287 -258c104 0 207 50 261 126l102 -76c-68 -104 -187 -175 -367 -175c-277 0 -447 188 -447 420c0 244 191 418 443 418c265 0 400 -205 400 -438v-17zM223 467h531c-16 131 -107 227 -254 227c-163 0 -253 -91 -277 -227zM558 1101h152
v-153h-152v153zM245 1101h154v-153h-154v153z" />
    <glyph glyph-name="igrave" unicode="&#xec;" horiz-adv-x="509" 
d="M223 941h-119l-187 257h207zM59 0v113h135v576h-135v116h284v-692h136v-113h-420z" />
    <glyph glyph-name="iacute" unicode="&#xed;" horiz-adv-x="509" 
d="M310 941h-119l99 257h207zM59 0v113h135v576h-135v116h284v-692h136v-113h-420z" />
    <glyph glyph-name="icircumflex" unicode="&#xee;" horiz-adv-x="509" 
d="M105 925h-143l98 275h275l104 -275h-148l-93 230zM59 0v113h135v576h-135v116h284v-692h136v-113h-420z" />
    <glyph glyph-name="idieresis" unicode="&#xef;" horiz-adv-x="509" 
d="M286 1089h152v-153h-152v153zM-27 1089h154v-153h-154v153zM59 0v113h135v576h-135v116h284v-692h136v-113h-420z" />
    <glyph glyph-name="eth" unicode="&#xf0;" horiz-adv-x="932" 
d="M188 961l-66 91c65 76 169 119 302 119c161 0 270 -73 339 -202l183 37l21 -101l-163 -33c28 -86 42 -187 42 -304c0 -375 -141 -587 -413 -587c-232 0 -369 170 -369 386c0 201 136 351 343 351c114 0 232 -40 295 -111c0 96 -10 175 -29 239l-213 -42l-20 101l190 38
c-40 77 -117 108 -201 108c-94 0 -190 -39 -241 -90zM696 457c-77 87 -198 126 -272 126c-141 0 -221 -95 -221 -225c0 -141 81 -252 236 -252c168 0 236 120 257 351z" />
    <glyph glyph-name="ntilde" unicode="&#xf1;" horiz-adv-x="1031" 
d="M63 0v107h143v587h-149v111h296l4 -104c103 80 184 119 283 119c147 0 235 -101 235 -258l-1 -455h145v-107h-402v107h110v400c0 117 -30 187 -125 187c-92 0 -173 -55 -245 -124v-463h145v-107h-439zM291 980h-80c13 147 89 209 176 209c102 0 201 -70 278 -70
c41 0 67 22 77 65h78c-11 -133 -74 -213 -179 -213c-112 0 -204 71 -282 71c-43 0 -60 -22 -68 -62z" />
    <glyph glyph-name="ograve" unicode="&#xf2;" horiz-adv-x="966" 
d="M482 107c165 0 268 127 268 295c0 164 -103 292 -268 292c-164 0 -266 -128 -266 -292c0 -168 102 -295 266 -295zM482 -18c-260 0 -425 188 -425 420s166 418 427 418c260 0 426 -186 426 -418s-167 -420 -428 -420zM636 914h-119l-187 257h207z" />
    <glyph glyph-name="oacute" unicode="&#xf3;" horiz-adv-x="966" 
d="M482 107c165 0 268 127 268 295c0 164 -103 292 -268 292c-164 0 -266 -128 -266 -292c0 -168 102 -295 266 -295zM482 -18c-260 0 -425 188 -425 420s166 418 427 418c260 0 426 -186 426 -418s-167 -420 -428 -420zM449 914h-119l99 257h207z" />
    <glyph glyph-name="ocircumflex" unicode="&#xf4;" horiz-adv-x="966" 
d="M482 107c165 0 268 127 268 295c0 164 -103 292 -268 292c-164 0 -266 -128 -266 -292c0 -168 102 -295 266 -295zM482 -18c-260 0 -425 188 -425 420s166 418 427 418c260 0 426 -186 426 -418s-167 -420 -428 -420zM387 896h-143l98 275h275l104 -275h-148l-93 230z
" />
    <glyph glyph-name="otilde" unicode="&#xf5;" horiz-adv-x="966" 
d="M482 107c165 0 268 127 268 295c0 164 -103 292 -268 292c-164 0 -266 -128 -266 -292c0 -168 102 -295 266 -295zM482 -18c-260 0 -425 188 -425 420s166 418 427 418c260 0 426 -186 426 -418s-167 -420 -428 -420zM258 980h-80c13 147 89 209 176 209
c102 0 201 -70 278 -70c41 0 67 22 77 65h78c-11 -133 -74 -213 -179 -213c-112 0 -204 71 -282 71c-43 0 -60 -22 -68 -62z" />
    <glyph glyph-name="odieresis" unicode="&#xf6;" horiz-adv-x="966" 
d="M482 107c165 0 268 127 268 295c0 164 -103 292 -268 292c-164 0 -266 -128 -266 -292c0 -168 102 -295 266 -295zM482 -18c-260 0 -425 188 -425 420s166 418 427 418c260 0 426 -186 426 -418s-167 -420 -428 -420zM563 1101h152v-153h-152v153zM250 1101h154v-153
h-154v153z" />
    <glyph glyph-name="divide" unicode="&#xf7;" horiz-adv-x="1164" 
d="M220 593h711v-118h-711v118zM501 792v152h153v-152h-153zM501 121v154h153v-154h-153z" />
    <glyph glyph-name="oslash" unicode="&#xf8;" horiz-adv-x="967" 
d="M482 -18c-51 0 -95 7 -138 19l-65 -127l-94 43l65 126c-124 76 -193 206 -193 359c0 232 166 418 427 418c55 0 106 -8 152 -24l66 130l94 -43l-68 -132c117 -76 182 -200 182 -349c0 -232 -167 -420 -428 -420zM216 402c0 -100 33 -183 97 -236l262 512
c-27 11 -58 16 -93 16c-164 0 -266 -128 -266 -292zM482 107c165 0 268 127 268 295c0 92 -31 169 -87 222l-259 -507c22 -7 48 -10 78 -10z" />
    <glyph glyph-name="ugrave" unicode="&#xf9;" horiz-adv-x="994" 
d="M970 0h-292l-5 100c-88 -80 -172 -118 -272 -118c-176 0 -249 107 -249 279v433h-120v111h272v-537c0 -104 33 -161 125 -161c93 0 180 59 244 143v444h-145v111h296v-698h146v-107zM650 914h-119l-187 257h207z" />
    <glyph glyph-name="uacute" unicode="&#xfa;" horiz-adv-x="994" 
d="M970 0h-292l-5 100c-88 -80 -172 -118 -272 -118c-176 0 -249 107 -249 279v433h-120v111h272v-537c0 -104 33 -161 125 -161c93 0 180 59 244 143v444h-145v111h296v-698h146v-107zM463 914h-119l99 257h207z" />
    <glyph glyph-name="ucircumflex" unicode="&#xfb;" horiz-adv-x="994" 
d="M970 0h-292l-5 100c-88 -80 -172 -118 -272 -118c-176 0 -249 107 -249 279v433h-120v111h272v-537c0 -104 33 -161 125 -161c93 0 180 59 244 143v444h-145v111h296v-698h146v-107zM401 896h-143l98 275h275l104 -275h-148l-93 230z" />
    <glyph glyph-name="udieresis" unicode="&#xfc;" horiz-adv-x="994" 
d="M970 0h-292l-5 100c-88 -80 -172 -118 -272 -118c-176 0 -249 107 -249 279v433h-120v111h272v-537c0 -104 33 -161 125 -161c93 0 180 59 244 143v444h-145v111h296v-698h146v-107zM577 1101h152v-153h-152v153zM264 1101h154v-153h-154v153z" />
    <glyph glyph-name="yacute" unicode="&#xfd;" horiz-adv-x="982" 
d="M136 -309v201h111v-79c89 0 136 2 192 145l44 112h-95l-264 624h-125v111h406v-111h-108l202 -532h20l86 270l75 262h-115v111h413v-111h-129l-216 -658c-78 -237 -153 -355 -374 -355c-33 0 -82 3 -123 10zM457 914h-119l99 257h207z" />
    <glyph glyph-name="thorn" unicode="&#xfe;" horiz-adv-x="1026" 
d="M24 -276v113h144v1195h-143v121h294v-446c84 77 175 113 296 113c246 0 398 -182 398 -410c0 -237 -154 -428 -399 -428c-116 0 -237 46 -296 129v-387h-294zM582 107c171 0 268 127 268 289c0 160 -103 298 -271 298c-120 0 -208 -75 -260 -130v-335
c56 -53 146 -122 263 -122z" />
    <glyph glyph-name="ydieresis" unicode="&#xff;" horiz-adv-x="982" 
d="M136 -309v201h111v-79c89 0 136 2 192 145l44 112h-95l-264 624h-125v111h406v-111h-108l202 -532h20l86 270l75 262h-115v111h413v-111h-129l-216 -658c-78 -237 -153 -355 -374 -355c-33 0 -82 3 -123 10zM571 1101h152v-153h-152v153zM258 1101h154v-153h-154v153z
" />
    <glyph glyph-name="hbar" unicode="&#x127;" horiz-adv-x="1024" 
d="M21 0v107h152v925h-150v121h299v-427c95 63 197 94 304 94c169 0 256 -88 256 -264c0 -7 -1 -114 -1 -221v-228h144v-107h-394v107h102v421c0 92 -28 166 -140 166c-81 0 -182 -27 -271 -87v-500h145v-107h-446zM86 850v85h326v-85h-326z" />
    <glyph glyph-name="Itilde" unicode="&#x128;" horiz-adv-x="581" 
d="M75 0v117h134v918h-134v118h428v-118h-132v-918h132v-117h-428zM66 1328h-80c13 147 89 209 176 209c102 0 201 -70 278 -70c41 0 67 22 77 65h78c-11 -133 -74 -213 -179 -213c-112 0 -204 71 -282 71c-43 0 -60 -22 -68 -62z" />
    <glyph glyph-name="itilde" unicode="&#x129;" horiz-adv-x="509" 
d="M59 0v113h135v576h-135v116h284v-692h136v-113h-420zM31 980h-80c13 147 89 209 176 209c102 0 201 -70 278 -70c41 0 67 22 77 65h78c-11 -133 -74 -213 -179 -213c-112 0 -204 71 -282 71c-43 0 -60 -22 -68 -62z" />
    <glyph glyph-name="dotlessi" unicode="&#x131;" horiz-adv-x="509" 
d="M59 0v113h135v576h-135v116h284v-692h136v-113h-420z" />
    <glyph glyph-name="IJ" unicode="&#x132;" horiz-adv-x="1138" 
d="M75 0v117h134v918h-134v118h428v-118h-132v-918h132v-117h-428zM517 -194v133c31 -3 67 -4 120 -4c104 0 141 52 141 161v939h-155v118h471v-118h-153v-957c0 -224 -148 -288 -277 -288c-49 0 -107 7 -147 16z" />
    <glyph glyph-name="ij" unicode="&#x133;" horiz-adv-x="942" 
d="M59 0v107h135v587h-135v111h284v-698h136v-107h-420zM176 1066c0 49 40 87 91 87c52 0 92 -38 92 -87s-40 -87 -92 -87c-51 0 -91 38 -91 87zM441 -361v126c31 -3 50 -4 77 -4c112 0 146 56 146 196v737h-152v111h303v-801c0 -202 -18 -369 -283 -372c-33 0 -59 2 -91 7z
M644 1066c0 49 40 87 92 87s92 -38 92 -87s-40 -87 -92 -87s-92 38 -92 87z" />
    <glyph glyph-name="Jcircumflex" unicode="&#x134;" horiz-adv-x="557" 
d="M182 1277h-143l98 275h275l104 -275h-148l-93 230zM-64 -194v133c31 -3 67 -4 120 -4c104 0 141 52 141 161v939h-155v118h471v-118h-153v-957c0 -224 -148 -288 -277 -288c-49 0 -107 7 -147 16z" />
    <glyph glyph-name="jcircumflex" unicode="&#x135;" horiz-adv-x="441" 
d="M-60 -361v126c31 -3 50 -4 77 -4c112 0 146 56 146 196v732h-152v116h303v-801c0 -202 -18 -369 -283 -372c-33 0 -59 2 -91 7zM143 1066c0 49 40 87 92 87s92 -38 92 -87s-40 -87 -92 -87s-92 38 -92 87zM125 896h-143l98 275h275l104 -275h-148l-93 230z" />
    <glyph glyph-name="kcommaaccent" unicode="&#x137;" horiz-adv-x="995" 
d="M20 0v107h153v925h-153v121h301v-723l329 264h-139v111h447v-111h-132l-332 -279l342 -308h130v-107h-421v107h106l-330 298v-298h105v-107h-406zM384 -331v211h227v-211c0 -153 -56 -237 -227 -237v87c90 18 121 53 121 150h-121z" />
    <glyph glyph-name="kgreenlandic" unicode="&#x138;" horiz-adv-x="995" 
d="M20 0v113h153v585h-153v121h301v-399l329 269h-139v116h447v-116h-132l-332 -284l342 -292h130v-113h-421v113h106l-330 282v-282h105v-113h-406z" />
    <glyph glyph-name="Ldotaccent" unicode="&#x13f;" horiz-adv-x="1707" 
 />
    <glyph glyph-name="ldot" unicode="&#x140;" horiz-adv-x="861" 
d="M588 482v197h172v-197h-172zM21 0v107h152v925h-149v121h298v-1046h133v-107h-434z" />
    <glyph glyph-name="Lslash" unicode="&#x141;" horiz-adv-x="985" 
d="M59 0v125h158v387l-157 -62v129l157 62v385h-158v127h474v-127h-155v-321l249 100v-129l-249 -100v-451h410v357h145v-482h-874z" />
    <glyph glyph-name="lslash" unicode="&#x142;" horiz-adv-x="511" 
d="M21 0v113h152v388l-137 -51v129l137 53v400h-149v121h298v-463l150 58v-136l-150 -56v-443h133v-113h-434z" />
    <glyph glyph-name="Nacute" unicode="&#x143;" horiz-adv-x="1322" 
d="M56 0v117h169v918h-169v118h382l548 -942v824h-165v118h472v-118h-173v-1035h-183l-578 997v-880h169v-117h-472zM627 1262h-119l99 257h207z" />
    <glyph glyph-name="nacute" unicode="&#x144;" horiz-adv-x="1031" 
d="M63 0v107h143v587h-149v111h296l4 -104c103 80 184 119 283 119c147 0 235 -101 235 -258l-1 -455h145v-107h-402v107h110v400c0 117 -30 187 -125 187c-92 0 -173 -55 -245 -124v-463h145v-107h-439zM481 914h-119l99 257h207z" />
    <glyph glyph-name="OE" unicode="&#x152;" horiz-adv-x="1920" 
d="M1017 1153h815v-321h-132v194h-524v-371h362l13 114h87v-359h-88l-13 116h-359v-399h525v201h129v-328h-815v95c-92 -72 -220 -114 -381 -114c-355 0 -569 262 -569 594c0 334 214 596 569 596c161 0 289 -42 381 -114v96zM245 575c0 -312 204 -453 429 -453
c117 0 239 37 343 113v698c-117 72 -237 107 -354 107c-229 0 -418 -148 -418 -465z" />
    <glyph glyph-name="oe" unicode="&#x153;" horiz-adv-x="1648" 
d="M482 -18c-260 0 -425 188 -425 420s166 418 427 418c156 0 275 -66 348 -167c80 104 207 167 356 167c265 0 400 -205 400 -438v-17h-679c8 -155 115 -258 287 -258c104 0 207 50 261 126l102 -76c-68 -104 -187 -175 -367 -175c-161 0 -286 63 -362 167
c-73 -101 -192 -167 -348 -167zM482 107c165 0 268 127 268 295c0 164 -103 292 -268 292c-164 0 -266 -128 -266 -292c0 -168 102 -295 266 -295zM913 467h531c-16 131 -107 227 -254 227c-163 0 -253 -91 -277 -227z" />
    <glyph glyph-name="Racute" unicode="&#x154;" horiz-adv-x="1107" 
d="M57 0v117h163v918h-163v118h551c263 0 380 -119 380 -298c0 -157 -83 -262 -259 -297l234 -441h146v-117h-253l-283 538h-193v-421h156v-117h-479zM380 657h223c173 0 220 102 220 198c0 113 -86 180 -227 180h-216v-378zM519 1262h-119l99 257h207z" />
    <glyph glyph-name="Rcommaaccent" unicode="&#x156;" horiz-adv-x="1107" 
d="M57 0v117h163v918h-163v118h551c263 0 380 -119 380 -298c0 -157 -83 -262 -259 -297l234 -441h146v-117h-253l-283 538h-193v-421h156v-117h-479zM380 657h223c173 0 220 102 220 198c0 113 -86 180 -227 180h-216v-378zM440 -358v211h227v-211
c0 -153 -56 -237 -227 -237v87c90 18 121 53 121 150h-121z" />
    <glyph glyph-name="rcommaaccent" unicode="&#x157;" horiz-adv-x="761" 
d="M64 0v107h161v587h-167v111h289l1 -175c72 147 164 190 293 190c29 0 60 -2 93 -6l-5 -139c-3 3 -90 3 -98 3c-196 0 -256 -117 -256 -298v-273h176v-107h-487zM267 348v211h227v-211c0 -153 -56 -237 -227 -237v87c90 18 121 53 121 150h-121z" />
    <glyph glyph-name="Rcaron" unicode="&#x158;" horiz-adv-x="1107" 
d="M57 0v117h163v918h-163v118h551c263 0 380 -119 380 -298c0 -157 -83 -262 -259 -297l234 -441h146v-117h-253l-283 538h-193v-421h156v-117h-479zM380 657h223c173 0 220 102 220 198c0 113 -86 180 -227 180h-216v-378zM295 1519h107l154 -154l152 154h104l-159 -259
h-196z" />
    <glyph glyph-name="rcaron" unicode="&#x159;" horiz-adv-x="761" 
d="M64 0v107h161v587h-167v111h289l1 -175c72 147 164 190 293 190c29 0 60 -2 93 -6l-5 -139c-3 3 -90 3 -98 3c-196 0 -256 -117 -256 -298v-273h176v-107h-487zM122 1171h107l154 -154l152 154h104l-159 -259h-196z" />
    <glyph glyph-name="Scaron" unicode="&#x160;" horiz-adv-x="972" 
d="M527 -18c-113 0 -212 35 -296 105v-87h-135v387h135v-116c80 -104 167 -154 292 -154c136 0 222 81 222 187c0 150 -145 184 -323 226c-182 40 -334 113 -334 329c0 205 160 312 361 312c97 0 188 -32 264 -92v74h135v-327h-135v82c-61 84 -134 127 -243 127
c-148 0 -226 -73 -226 -168c0 -161 181 -173 356 -219c167 -44 310 -143 310 -342c0 -185 -155 -324 -383 -324zM227 1519h107l154 -154l152 154h104l-159 -259h-196z" />
    <glyph glyph-name="scaron" unicode="&#x161;" horiz-adv-x="809" 
d="M77 0v263h133v-53c34 -66 88 -110 206 -110c117 0 183 41 183 117c0 85 -72 98 -178 114c-164 24 -346 63 -346 255c0 132 117 234 297 234c80 0 153 -32 205 -75v60h129v-256h-129v67c-47 57 -114 86 -199 86c-100 0 -162 -42 -162 -110c0 -176 536 -33 536 -364
c0 -147 -124 -246 -319 -246c-92 0 -163 20 -223 68v-50h-133zM146 1171h107l154 -154l152 154h104l-159 -259h-196z" />
    <glyph glyph-name="Ydieresis" unicode="&#x178;" horiz-adv-x="1130" 
d="M327 0v117h159v413l-358 505h-146v118h472v-118h-150l274 -387l257 387h-150v118h460v-118h-156l-343 -505v-413h164v-117h-483zM645 1449h152v-153h-152v153zM332 1449h154v-153h-154v153z" />
    <glyph glyph-name="Zcaron" unicode="&#x17d;" horiz-adv-x="1010" 
d="M62 0v128l657 907h-498v-202h-129v320h832v-112l-667 -924h548v218h129v-335h-872zM246 1519h107l154 -154l152 154h104l-159 -259h-196z" />
    <glyph glyph-name="zcaron" unicode="&#x17e;" horiz-adv-x="833" 
d="M754 276v-276h-700v116l525 578h-364v-157h-121v268h663v-122l-532 -576h401v169h128zM158 1171h107l154 -154l152 154h104l-159 -259h-196z" />
    <glyph glyph-name="uni0200" unicode="&#x200;" horiz-adv-x="1196" 
d="M318 1153h560v-118h-101l161 -484c50 -153 97 -303 133 -434h137v-117h-453v117h150l-85 307h-445l-84 -307h149v-117h-453v117h138c77 286 194 628 293 918h-100v118zM405 545h385c-27 87 -70 247 -155 490h-74c-85 -244 -131 -402 -156 -490zM607 1247h-96l-184 272
h190zM868 1247h-95l-185 272h190z" />
    <glyph glyph-name="uni0201" unicode="&#x201;" horiz-adv-x="889" 
d="M194 610l-92 98c72 72 180 112 317 112c252 0 325 -130 325 -266v-447h144v-107h-277l-2 83c-107 -77 -182 -101 -282 -101c-169 0 -272 111 -272 234c0 200 157 254 347 254c64 0 125 -7 193 -20v97c0 112 -84 154 -186 154c-92 0 -168 -30 -215 -91zM595 178v174
c-43 1 -111 16 -183 16c-105 0 -216 -21 -216 -152c0 -70 54 -127 152 -127c88 0 186 33 247 89zM454 899h-96l-184 272h190zM715 899h-95l-185 272h190z" />
    <glyph glyph-name="uni0202" unicode="&#x202;" horiz-adv-x="1196" 
d="M318 1153h560v-118h-101l161 -484c50 -153 97 -303 133 -434h137v-117h-453v117h150l-85 307h-445l-84 -307h149v-117h-453v117h138c77 286 194 628 293 918h-100v118zM405 545h385c-27 87 -70 247 -155 490h-74c-85 -244 -131 -402 -156 -490zM450 1288h-110
c11 128 115 213 258 213c144 0 245 -86 258 -213h-111c-11 76 -67 118 -147 118c-84 0 -135 -42 -148 -118z" />
    <glyph glyph-name="uni0203" unicode="&#x203;" horiz-adv-x="889" 
d="M194 610l-92 98c72 72 180 112 317 112c252 0 325 -130 325 -266v-447h144v-107h-277l-2 83c-107 -77 -182 -101 -282 -101c-169 0 -272 111 -272 234c0 200 157 254 347 254c64 0 125 -7 193 -20v97c0 112 -84 154 -186 154c-92 0 -168 -30 -215 -91zM595 178v174
c-43 1 -111 16 -183 16c-105 0 -216 -21 -216 -152c0 -70 54 -127 152 -127c88 0 186 33 247 89zM296 940h-110c11 128 115 213 258 213c144 0 245 -86 258 -213h-111c-11 76 -67 118 -147 118c-84 0 -135 -42 -148 -118z" />
    <glyph glyph-name="uni0204" unicode="&#x204;" horiz-adv-x="1119" 
d="M60 0v117h156v918h-156v118h971v-321h-131v203h-525v-380h362v114h100v-359h-101v116h-359v-409h525v211h129v-328h-971zM569 1247h-96l-184 272h190zM830 1247h-95l-185 272h190z" />
    <glyph glyph-name="uni0205" unicode="&#x205;" horiz-adv-x="955" 
d="M898 365h-679c8 -155 115 -258 287 -258c104 0 207 50 261 126l102 -76c-68 -104 -187 -175 -367 -175c-277 0 -447 188 -447 420c0 244 191 418 443 418c265 0 400 -205 400 -438v-17zM223 467h531c-16 131 -107 227 -254 227c-163 0 -253 -91 -277 -227zM487 899h-96
l-184 272h190zM748 899h-95l-185 272h190z" />
    <glyph glyph-name="uni0206" unicode="&#x206;" horiz-adv-x="1119" 
d="M60 0v117h156v918h-156v118h971v-321h-131v203h-525v-380h362v114h100v-359h-101v116h-359v-409h525v211h129v-328h-971zM411 1288h-110c11 128 115 213 258 213c144 0 245 -86 258 -213h-111c-11 76 -67 118 -147 118c-84 0 -135 -42 -148 -118z" />
    <glyph glyph-name="uni0207" unicode="&#x207;" horiz-adv-x="955" 
d="M898 365h-679c8 -155 115 -258 287 -258c104 0 207 50 261 126l102 -76c-68 -104 -187 -175 -367 -175c-277 0 -447 188 -447 420c0 244 191 418 443 418c265 0 400 -205 400 -438v-17zM223 467h531c-16 131 -107 227 -254 227c-163 0 -253 -91 -277 -227zM329 940h-110
c11 128 115 213 258 213c144 0 245 -86 258 -213h-111c-11 76 -67 118 -147 118c-84 0 -135 -42 -148 -118z" />
    <glyph glyph-name="uni0208" unicode="&#x208;" horiz-adv-x="581" 
d="M75 0v117h134v918h-134v118h428v-118h-132v-918h132v-117h-428zM300 1247h-96l-184 272h190zM561 1247h-95l-185 272h190z" />
    <glyph glyph-name="uni0209" unicode="&#x209;" horiz-adv-x="509" 
d="M59 0v113h135v576h-135v116h284v-692h136v-113h-420zM264 899h-96l-184 272h190zM525 899h-95l-185 272h190z" />
    <glyph glyph-name="uni020A" unicode="&#x20a;" horiz-adv-x="581" 
d="M75 0v117h134v918h-134v118h428v-118h-132v-918h132v-117h-428zM143 1288h-110c11 128 115 213 258 213c144 0 245 -86 258 -213h-111c-11 76 -67 118 -147 118c-84 0 -135 -42 -148 -118z" />
    <glyph glyph-name="uni020B" unicode="&#x20b;" horiz-adv-x="509" 
d="M59 0v107h135v587h-135v111h284v-698h136v-107h-420zM176 1066c0 49 40 87 91 87c52 0 92 -38 92 -87s-40 -87 -92 -87c-51 0 -91 38 -91 87zM107 940h-110c11 128 115 213 258 213c144 0 245 -86 258 -213h-111c-11 76 -67 118 -147 118c-84 0 -135 -42 -148 -118z" />
    <glyph glyph-name="uni020C" unicode="&#x20c;" horiz-adv-x="1321" 
d="M66 575c0 334 225 596 594 596c371 0 596 -264 596 -596c0 -331 -225 -594 -596 -594c-370 0 -594 262 -594 594zM243 575c0 -252 165 -458 417 -458c254 0 418 206 418 458c0 257 -164 460 -418 460c-252 0 -417 -203 -417 -460zM670 1247h-96l-184 272h190zM931 1247
h-95l-185 272h190z" />
    <glyph glyph-name="uni020D" unicode="&#x20d;" horiz-adv-x="966" 
d="M482 107c165 0 268 127 268 295c0 164 -103 292 -268 292c-164 0 -266 -128 -266 -292c0 -168 102 -295 266 -295zM482 -18c-260 0 -425 188 -425 420s166 418 427 418c260 0 426 -186 426 -418s-167 -420 -428 -420zM492 899h-96l-184 272h190zM753 899h-95l-185 272
h190z" />
    <glyph glyph-name="uni020E" unicode="&#x20e;" horiz-adv-x="1321" 
d="M66 575c0 334 225 596 594 596c371 0 596 -264 596 -596c0 -331 -225 -594 -596 -594c-370 0 -594 262 -594 594zM243 575c0 -252 165 -458 417 -458c254 0 418 206 418 458c0 257 -164 460 -418 460c-252 0 -417 -203 -417 -460zM512 1288h-110c11 128 115 213 258 213
c144 0 245 -86 258 -213h-111c-11 76 -67 118 -147 118c-84 0 -135 -42 -148 -118z" />
    <glyph glyph-name="uni020F" unicode="&#x20f;" horiz-adv-x="966" 
d="M482 107c165 0 268 127 268 295c0 164 -103 292 -268 292c-164 0 -266 -128 -266 -292c0 -168 102 -295 266 -295zM482 -18c-260 0 -425 188 -425 420s166 418 427 418c260 0 426 -186 426 -418s-167 -420 -428 -420zM335 940h-110c11 128 115 213 258 213
c144 0 245 -86 258 -213h-111c-11 76 -67 118 -147 118c-84 0 -135 -42 -148 -118z" />
    <glyph glyph-name="uni0210" unicode="&#x210;" horiz-adv-x="1107" 
d="M57 0v117h163v918h-163v118h551c263 0 380 -119 380 -298c0 -157 -83 -262 -259 -297l234 -441h146v-117h-253l-283 538h-193v-421h156v-117h-479zM380 657h223c173 0 220 102 220 198c0 113 -86 180 -227 180h-216v-378zM563 1247h-96l-184 272h190zM824 1247h-95
l-185 272h190z" />
    <glyph glyph-name="uni0211" unicode="&#x211;" horiz-adv-x="761" 
d="M64 0v107h161v587h-167v111h289l1 -175c72 147 164 190 293 190c29 0 60 -2 93 -6l-5 -139c-3 3 -90 3 -98 3c-196 0 -256 -117 -256 -298v-273h176v-107h-487zM390 899h-96l-184 272h190zM651 899h-95l-185 272h190z" />
    <glyph glyph-name="uni0212" unicode="&#x212;" horiz-adv-x="1107" 
d="M57 0v117h163v918h-163v118h551c263 0 380 -119 380 -298c0 -157 -83 -262 -259 -297l234 -441h146v-117h-253l-283 538h-193v-421h156v-117h-479zM380 657h223c173 0 220 102 220 198c0 113 -86 180 -227 180h-216v-378zM405 1288h-110c11 128 115 213 258 213
c144 0 245 -86 258 -213h-111c-11 76 -67 118 -147 118c-84 0 -135 -42 -148 -118z" />
    <glyph glyph-name="uni0213" unicode="&#x213;" horiz-adv-x="761" 
d="M64 0v107h161v587h-167v111h289l1 -175c72 147 164 190 293 190c29 0 60 -2 93 -6l-5 -139c-3 3 -90 3 -98 3c-196 0 -256 -117 -256 -298v-273h176v-107h-487zM232 940h-110c11 128 115 213 258 213c144 0 245 -86 258 -213h-111c-11 76 -67 118 -147 118
c-84 0 -135 -42 -148 -118z" />
    <glyph glyph-name="uni0214" unicode="&#x214;" horiz-adv-x="1211" 
d="M184 1035h-150v118h452v-118h-142v-657c0 -170 68 -261 258 -261c204 0 266 98 266 272v646h-142v118h451v-118h-149c0 -317 2 -607 2 -655c0 -288 -192 -398 -416 -398c-356 0 -432 196 -432 400c0 23 2 378 2 546v107zM615 1247h-96l-184 272h190zM876 1247h-95
l-185 272h190z" />
    <glyph glyph-name="uni0215" unicode="&#x215;" horiz-adv-x="994" 
d="M970 0h-292l-5 100c-88 -80 -172 -118 -272 -118c-176 0 -249 107 -249 279v433h-120v111h272v-537c0 -104 33 -161 125 -161c93 0 180 59 244 143v444h-145v111h296v-698h146v-107zM506 899h-96l-184 272h190zM767 899h-95l-185 272h190z" />
    <glyph glyph-name="uni0216" unicode="&#x216;" horiz-adv-x="1211" 
d="M184 1035h-150v118h452v-118h-142v-657c0 -170 68 -261 258 -261c204 0 266 98 266 272v646h-142v118h451v-118h-149c0 -317 2 -607 2 -655c0 -288 -192 -398 -416 -398c-356 0 -432 196 -432 400c0 23 2 378 2 546v107zM457 1288h-110c11 128 115 213 258 213
c144 0 245 -86 258 -213h-111c-11 76 -67 118 -147 118c-84 0 -135 -42 -148 -118z" />
    <glyph glyph-name="uni0217" unicode="&#x217;" horiz-adv-x="994" 
d="M970 0h-292l-5 100c-88 -80 -172 -118 -272 -118c-176 0 -249 107 -249 279v433h-120v111h272v-537c0 -104 33 -161 125 -161c93 0 180 59 244 143v444h-145v111h296v-698h146v-107zM349 940h-110c11 128 115 213 258 213c144 0 245 -86 258 -213h-111
c-11 76 -67 118 -147 118c-84 0 -135 -42 -148 -118z" />
    <glyph glyph-name="uni0218" unicode="&#x218;" horiz-adv-x="972" 
d="M527 -18c-113 0 -212 35 -296 105v-87h-135v387h135v-116c80 -104 167 -154 292 -154c136 0 222 81 222 187c0 150 -145 184 -323 226c-182 40 -334 113 -334 329c0 205 160 312 361 312c97 0 188 -32 264 -92v74h135v-327h-135v82c-61 84 -134 127 -243 127
c-148 0 -226 -73 -226 -168c0 -161 181 -173 356 -219c167 -44 310 -143 310 -342c0 -185 -155 -324 -383 -324zM411 -278v212h212v-212c0 -153 -55 -234 -212 -237v88c76 16 106 53 106 149h-106z" />
    <glyph glyph-name="uni0219" unicode="&#x219;" horiz-adv-x="809" 
d="M77 0v263h133v-53c34 -66 88 -110 206 -110c117 0 183 41 183 117c0 85 -72 98 -178 114c-164 24 -346 63 -346 255c0 132 117 234 297 234c80 0 153 -32 205 -75v60h129v-256h-129v67c-47 57 -114 86 -199 86c-100 0 -162 -42 -162 -110c0 -176 536 -33 536 -364
c0 -147 -124 -246 -319 -246c-92 0 -163 20 -223 68v-50h-133zM303 -278v212h212v-212c0 -153 -55 -234 -212 -237v88c76 16 106 53 106 149h-106z" />
    <glyph glyph-name="uni021A" unicode="&#x21a;" horiz-adv-x="1034" 
d="M262 0v117h175v918h-265v-230h-129v348h947v-348h-131v230h-259v-918h174v-117h-512zM411 -278v212h212v-212c0 -153 -55 -234 -212 -237v88c76 16 106 53 106 149h-106z" />
    <glyph glyph-name="uni021B" unicode="&#x21b;" horiz-adv-x="528" 
d="M35 694v111h124v258l151 32v-290h173v-111h-173v-405c0 -122 1 -182 85 -182h118v-107h-138c-208 0 -216 130 -216 300v394h-124zM158 -278v212h212v-212c0 -153 -55 -234 -212 -237v88c76 16 106 53 106 149h-106z" />
    <glyph glyph-name="dotlessj.001" horiz-adv-x="441" 
d="M-60 -361v126c31 -3 50 -4 77 -4c112 0 149 56 149 196c0 23 -3 210 -3 394v334h-132v120h283v-585c0 -105 1 -212 1 -216c0 -202 -19 -368 -284 -371c-33 0 -59 1 -91 6z" />
    <glyph glyph-name="circumflex" unicode="&#x2c6;" horiz-adv-x="593" 
d="M201 896h-143l98 275h275l104 -275h-148l-93 230z" />
    <glyph glyph-name="caron" unicode="&#x2c7;" horiz-adv-x="593" 
d="M38 1171h107l154 -154l152 154h104l-159 -259h-196z" />
    <glyph glyph-name="breve" unicode="&#x2d8;" horiz-adv-x="584" 
d="M34 1153h110c13 -76 64 -118 148 -118c80 0 136 42 147 118h111c-13 -127 -114 -213 -258 -213c-143 0 -247 85 -258 213z" />
    <glyph glyph-name="dotaccent" unicode="&#x2d9;" horiz-adv-x="535" 
d="M268 1125c51 0 91 -38 91 -87c0 -48 -40 -88 -91 -88s-91 40 -91 88c0 49 40 87 91 87z" />
    <glyph glyph-name="ring" unicode="&#x2da;" horiz-adv-x="565" 
d="M282 1201c94 0 169 -68 169 -159s-75 -161 -169 -161s-168 70 -168 161s74 159 168 159zM282 1140c-59 0 -105 -42 -105 -98s46 -99 105 -99s104 43 104 99s-45 98 -104 98z" />
    <glyph glyph-name="ogonek" unicode="&#x2db;" horiz-adv-x="587" 
d="M197 0h114c-35 -48 -45 -83 -45 -126c0 -71 33 -107 98 -107c31 0 55 5 87 20v-103c-55 -27 -87 -37 -134 -37c-104 0 -180 72 -180 176c0 52 12 100 60 177z" />
    <glyph glyph-name="tilde" unicode="&#x2dc;" horiz-adv-x="587" 
d="M69 980h-80c13 147 89 209 176 209c102 0 201 -70 278 -70c41 0 67 22 77 65h78c-11 -133 -74 -213 -179 -213c-112 0 -204 71 -282 71c-43 0 -60 -22 -68 -62z" />
    <glyph glyph-name="hungarumlaut" unicode="&#x2dd;" horiz-adv-x="587" 
d="M382 899h-95l90 272h190zM121 899h-96l91 272h190z" />
    <glyph glyph-name="dotaccentcmb" unicode="&#x307;" horiz-adv-x="535" 
d="M268 1125c51 0 91 -38 91 -87c0 -48 -40 -88 -91 -88s-91 40 -91 88c0 49 40 87 91 87z" />
    <glyph glyph-name="uni030F" unicode="&#x30f;" horiz-adv-x="587" 
d="M277 899h-96l-184 272h190zM538 899h-95l-185 272h190z" />
    <glyph glyph-name="uni0311" unicode="&#x311;" horiz-adv-x="584" 
d="M144 940h-110c11 128 115 213 258 213c144 0 245 -86 258 -213h-111c-11 76 -67 118 -147 118c-84 0 -135 -42 -148 -118z" />
    <glyph glyph-name="uni0326" unicode="&#x326;" horiz-adv-x="554" 
d="M151 -278v212h212v-212c0 -153 -55 -234 -212 -237v88c76 16 106 53 106 149h-106z" />
    <glyph glyph-name="endash" unicode="&#x2013;" horiz-adv-x="874" 
d="M0 117h874v-117h-874v117z" />
    <glyph glyph-name="emdash" unicode="&#x2014;" horiz-adv-x="1648" 
d="M0 117h1648v-117h-1648v117z" />
    <glyph glyph-name="quoteleft" unicode="&#x2018;" horiz-adv-x="382" 
d="M299 934v-211h-217v211c0 153 54 237 217 237v-87c-84 -18 -111 -54 -111 -150h111z" />
    <glyph glyph-name="quoteright" unicode="&#x2019;" horiz-adv-x="364" 
d="M82 942v211h217v-211c0 -153 -54 -237 -217 -237v87c84 19 111 53 111 150h-111z" />
    <glyph glyph-name="quotesinglbase" unicode="&#x201a;" horiz-adv-x="389" 
d="M82 0v211h217v-211c0 -153 -54 -237 -217 -237v87c84 19 111 53 111 150h-111z" />
    <glyph glyph-name="quotedblleft" unicode="&#x201c;" horiz-adv-x="720" 
d="M632 934v-211h-217v211c0 153 54 237 217 237v-87c-84 -18 -111 -54 -111 -150h111zM299 934v-211h-217v211c0 153 54 237 217 237v-87c-84 -18 -111 -54 -111 -150h111z" />
    <glyph glyph-name="quotedblright" unicode="&#x201d;" horiz-adv-x="704" 
d="M82 942v211h217v-211c0 -153 -54 -237 -217 -237v87c84 19 111 53 111 150h-111zM415 942v211h217v-211c0 -153 -54 -237 -217 -237v87c84 19 111 53 111 150h-111z" />
    <glyph glyph-name="quotedblbase" unicode="&#x201e;" horiz-adv-x="785" 
d="M481 0v211h217v-211c0 -153 -54 -237 -217 -237v87c84 19 111 53 111 150h-111zM82 0v211h217v-211c0 -153 -54 -237 -217 -237v87c84 19 111 53 111 150h-111z" />
    <glyph glyph-name="bullet" unicode="&#x2022;" horiz-adv-x="559" 
d="M280 754c111 0 201 -84 201 -192c0 -107 -90 -194 -201 -194c-112 0 -200 87 -200 194c0 108 88 192 200 192z" />
    <glyph glyph-name="guilsinglleft" unicode="&#x2039;" horiz-adv-x="534" 
d="M210 418l258 -418h-143l-264 418l264 419h143z" />
    <glyph glyph-name="guilsinglright" unicode="&#x203a;" horiz-adv-x="533" 
d="M323 418l-258 419h143l264 -419l-264 -418h-143z" />
    <glyph glyph-name="Euro" unicode="&#x20ac;" horiz-adv-x="1093" 
d="M30 544h139v31c0 28 1 55 4 83h-143v113h162c53 224 203 400 438 400c142 0 220 -71 267 -129v111h130v-349h-125c-51 157 -138 231 -254 231c-140 0 -239 -105 -279 -264h249v-113h-269c-2 -25 -3 -51 -3 -78v-36h272v-114h-261c29 -184 117 -313 297 -313
c115 0 229 65 269 261l135 -71c-85 -263 -268 -326 -415 -326c-251 0 -420 177 -463 449h-150v114z" />
    <glyph glyph-name="trademark" unicode="&#x2122;" horiz-adv-x="1547" 
d="M92 1153h563v-95h-227v-564h-107v564h-229v95zM1071 635l174 518h159v-659h-97v558h-3l-189 -558h-90l-187 558h-4v-558h-98v659h159z" />
    <glyph glyph-name="CR" 
 />
    <glyph glyph-name="nbspace" horiz-adv-x="430" 
 />
    <glyph glyph-name="foundryicon" 
 />
    <glyph glyph-name="commaaccent" horiz-adv-x="430" 
d="M101 348v211h227v-211c0 -153 -56 -237 -227 -237v87c90 18 121 53 121 150h-121z" />
    <glyph glyph-name="grave.cap" horiz-adv-x="562" 
d="M411 914h-119l-187 257h207z" />
    <glyph glyph-name="acute.cap" horiz-adv-x="562" 
d="M284 914h-119l99 257h207z" />
    <glyph glyph-name="circumflex.cap" horiz-adv-x="593" 
d="M201 896h-143l98 275h275l104 -275h-148l-93 230z" />
    <glyph glyph-name="dieresis.cap" horiz-adv-x="572" 
d="M371 1101h152v-153h-152v153zM58 1101h154v-153h-154v153z" />
    <glyph glyph-name="caron.cap" horiz-adv-x="593" 
d="M38 1171h107l154 -154l152 154h104l-159 -259h-196z" />
    <glyph glyph-name="ring.cap" horiz-adv-x="565" 
d="M282 1201c94 0 169 -68 169 -159s-75 -161 -169 -161s-168 70 -168 161s74 159 168 159zM282 1140c-59 0 -105 -42 -105 -98s46 -99 105 -99s104 43 104 99s-45 98 -104 98z" />
    <glyph glyph-name="tilde.cap" horiz-adv-x="587" 
d="M69 980h-80c13 147 89 209 176 209c102 0 201 -70 278 -70c41 0 67 22 77 65h78c-11 -133 -74 -213 -179 -213c-112 0 -204 71 -282 71c-43 0 -60 -22 -68 -62z" />
    <glyph glyph-name="dotaccentcmb.cap" horiz-adv-x="535" 
d="M268 1125c51 0 91 -38 91 -87c0 -48 -40 -88 -91 -88s-91 40 -91 88c0 49 40 87 91 87z" />
    <glyph glyph-name="periodcentered" unicode="&#xb7;" horiz-adv-x="414" 
d="M86 446v211h227v-211h-227z" />
    <glyph glyph-name="macron" unicode="&#xaf;" horiz-adv-x="593" 
d="M131 1086v85h326v-85h-326z" />
    <glyph glyph-name="dotlessj" unicode="&#x237;" horiz-adv-x="441" 
d="M-60 -361v126c31 -3 50 -4 77 -4c112 0 146 56 146 196v732h-152v116h303v-801c0 -202 -18 -369 -283 -372c-33 0 -59 2 -91 7zM143 1066c0 49 40 87 92 87s92 -38 92 -87s-40 -87 -92 -87s-92 38 -92 87z" />
    </font>
</defs>
</svg>
